<svg width="1266" height="40" viewBox="0 0 1266 40" fill="none" xmlns="http://www.w3.org/2000/svg">
<path d="M0.269821 0.799998H25.3398V5.722H6.15782V13.634H15.6798C19.5438 13.634 22.4725 14.4467 24.4658 16.072C26.4898 17.6667 27.5018 19.982 27.5018 23.018C27.5018 26.2073 26.3978 28.676 24.1898 30.424C21.9818 32.1413 18.8385 33 14.7598 33H0.269821V0.799998ZM14.4378 28.4C16.7378 28.4 18.4858 27.9553 19.6818 27.066C20.8778 26.1767 21.4758 24.8887 21.4758 23.202C21.4758 19.89 19.1298 18.234 14.4378 18.234H6.15782V28.4H14.4378ZM55.1694 25.548H39.0694L35.8954 33H29.7314L44.2214 0.799998H50.1094L64.6454 33H58.3894L55.1694 25.548ZM53.1914 20.856L47.1194 6.78L41.0934 20.856H53.1914ZM101.732 27.94V39.854H96.2118V33H71.5098V39.854H65.9438L65.9898 27.94H67.3698C69.3938 27.848 70.8045 26.3607 71.6018 23.478C72.4298 20.5647 72.9358 16.4093 73.1198 11.012L73.4878 0.799998H97.0858V27.94H101.732ZM78.3638 11.564C78.2105 15.7347 77.8731 19.2153 77.3518 22.006C76.8305 24.766 76.0025 26.744 74.8678 27.94H91.1978V5.86H78.5938L78.3638 11.564ZM108.826 33.322C107.783 33.322 106.894 32.9693 106.158 32.264C105.422 31.528 105.054 30.608 105.054 29.504C105.054 28.3693 105.407 27.4493 106.112 26.744C106.848 26.0387 107.753 25.686 108.826 25.686C109.899 25.686 110.789 26.0387 111.494 26.744C112.23 27.4493 112.598 28.3693 112.598 29.504C112.598 30.608 112.23 31.528 111.494 32.264C110.758 32.9693 109.869 33.322 108.826 33.322ZM160.277 0.799998V33H154.297V19.2H137.645V33H131.665V0.799998H137.645V14.094H154.297V0.799998H160.277ZM193.46 27.986V33H169.31V0.799998H192.816V5.814H175.29V14.186H190.838V19.108H175.29V27.986H193.46ZM237.449 0.799998V33H231.561V24.03H223.603H222.959L216.979 33H210.677L217.577 23.064C215.338 22.236 213.606 20.9327 212.379 19.154C211.183 17.3447 210.585 15.1673 210.585 12.622C210.585 10.1687 211.137 8.05267 212.241 6.274C213.345 4.49533 214.909 3.146 216.933 2.226C218.957 1.27533 221.334 0.799998 224.063 0.799998H237.449ZM224.247 5.86C221.794 5.86 219.908 6.42733 218.589 7.562C217.301 8.69667 216.657 10.3527 216.657 12.53C216.657 14.646 217.286 16.2867 218.543 17.452C219.8 18.5867 221.625 19.154 224.017 19.154H231.561V5.86H224.247ZM267.736 16.256C269.791 16.808 271.355 17.7587 272.428 19.108C273.502 20.4267 274.038 22.0827 274.038 24.076C274.038 26.8973 272.996 29.09 270.91 30.654C268.825 32.218 265.804 33 261.848 33H246.576V0.799998H260.974C264.593 0.799998 267.414 1.52066 269.438 2.962C271.462 4.40333 272.474 6.44267 272.474 9.08C272.474 10.7667 272.06 12.2233 271.232 13.45C270.435 14.6767 269.27 15.612 267.736 16.256ZM252.464 14.554H260.468C262.4 14.554 263.872 14.1707 264.884 13.404C265.896 12.6373 266.402 11.5027 266.402 10C266.402 8.49733 265.896 7.36267 264.884 6.596C263.872 5.79867 262.4 5.4 260.468 5.4H252.464V14.554ZM261.664 28.4C265.896 28.4 268.012 26.8053 268.012 23.616C268.012 20.488 265.896 18.924 261.664 18.924H252.464V28.4H261.664ZM308.359 0.799998V33H302.471V5.86H289.775L289.499 13.91C289.345 18.418 288.977 22.0827 288.395 24.904C287.812 27.6947 286.877 29.826 285.589 31.298C284.301 32.7393 282.522 33.46 280.253 33.46C279.455 33.46 278.367 33.3067 276.987 33L277.401 27.802C277.799 27.9247 278.259 27.986 278.781 27.986C280.651 27.986 281.97 26.882 282.737 24.674C283.534 22.4353 284.025 18.924 284.209 14.14L284.669 0.799998H308.359ZM342.027 0.799998V33H336.139V24.03H328.181H327.537L321.557 33H315.255L322.155 23.064C319.917 22.236 318.184 20.9327 316.957 19.154C315.761 17.3447 315.163 15.1673 315.163 12.622C315.163 10.1687 315.715 8.05267 316.819 6.274C317.923 4.49533 319.487 3.146 321.511 2.226C323.535 1.27533 325.912 0.799998 328.641 0.799998H342.027ZM328.825 5.86C326.372 5.86 324.486 6.42733 323.167 7.562C321.879 8.69667 321.235 10.3527 321.235 12.53C321.235 14.646 321.864 16.2867 323.121 17.452C324.379 18.5867 326.203 19.154 328.595 19.154H336.139V5.86H328.825ZM375.259 27.986V33H351.109V0.799998H374.615V5.814H357.089V14.186H372.637V19.108H357.089V27.986H375.259ZM405.293 5.86H394.621V33H388.687V5.86H378.061V0.799998H405.293V5.86ZM424.813 33.46C421.562 33.46 418.618 32.7547 415.981 31.344C413.374 29.9027 411.32 27.9247 409.817 25.41C408.345 22.8953 407.609 20.0587 407.609 16.9C407.609 13.7413 408.36 10.9047 409.863 8.39C411.366 5.87533 413.42 3.91266 416.027 2.502C418.664 1.06066 421.608 0.339998 424.859 0.339998C427.496 0.339998 429.904 0.799999 432.081 1.72C434.258 2.64 436.098 3.974 437.601 5.722L433.737 9.356C431.406 6.84133 428.539 5.584 425.135 5.584C422.927 5.584 420.949 6.07467 419.201 7.056C417.453 8.00666 416.088 9.34066 415.107 11.058C414.126 12.7753 413.635 14.7227 413.635 16.9C413.635 19.0773 414.126 21.0247 415.107 22.742C416.088 24.4593 417.453 25.8087 419.201 26.79C420.949 27.7407 422.927 28.216 425.135 28.216C428.539 28.216 431.406 26.9433 433.737 24.398L437.601 28.078C436.098 29.826 434.243 31.16 432.035 32.08C429.858 33 427.45 33.46 424.813 33.46ZM467.09 0.799998V33H461.202V24.03H453.244H452.6L446.62 33H440.318L447.218 23.064C444.979 22.236 443.246 20.9327 442.02 19.154C440.824 17.3447 440.226 15.1673 440.226 12.622C440.226 10.1687 440.778 8.05267 441.882 6.274C442.986 4.49533 444.55 3.146 446.574 2.226C448.598 1.27533 450.974 0.799998 453.704 0.799998H467.09ZM453.888 5.86C451.434 5.86 449.548 6.42733 448.23 7.562C446.942 8.69667 446.298 10.3527 446.298 12.53C446.298 14.646 446.926 16.2867 448.184 17.452C449.441 18.5867 451.266 19.154 453.658 19.154H461.202V5.86H453.888ZM516.392 0.799998V33H510.504V5.86H497.808L497.532 13.91C497.379 18.418 497.011 22.0827 496.428 24.904C495.845 27.6947 494.91 29.826 493.622 31.298C492.334 32.7393 490.555 33.46 488.286 33.46C487.489 33.46 486.4 33.3067 485.02 33L485.434 27.802C485.833 27.9247 486.293 27.986 486.814 27.986C488.685 27.986 490.003 26.882 490.77 24.674C491.567 22.4353 492.058 18.924 492.242 14.14L492.702 0.799998H516.392ZM549.6 27.986V33H525.45V0.799998H548.956V5.814H531.43V14.186H546.978V19.108H531.43V27.986H549.6ZM568.135 19.43H562.155V33H556.267V0.799998H562.155V14.278H568.319L577.565 0.799998H583.913L572.919 16.394L584.327 33H577.565L568.135 19.43ZM609.191 25.548H593.091L589.917 33H583.753L598.243 0.799998H604.131L618.667 33H612.411L609.191 25.548ZM607.213 20.856L601.141 6.78L595.115 20.856H607.213ZM636.853 0.799998C639.643 0.799998 642.066 1.26 644.121 2.18C646.206 3.1 647.801 4.41866 648.905 6.136C650.009 7.85333 650.561 9.89267 650.561 12.254C650.561 14.5847 650.009 16.624 648.905 18.372C647.801 20.0893 646.206 21.408 644.121 22.328C642.066 23.248 639.643 23.708 636.853 23.708H629.585V33H623.605V0.799998H636.853ZM636.577 18.648C639.183 18.648 641.161 18.096 642.511 16.992C643.86 15.888 644.535 14.3087 644.535 12.254C644.535 10.1993 643.86 8.62 642.511 7.516C641.161 6.412 639.183 5.86 636.577 5.86H629.585V18.648H636.577ZM671.479 33.46C668.229 33.46 665.285 32.7547 662.647 31.344C660.041 29.9027 657.986 27.9247 656.483 25.41C655.011 22.8953 654.275 20.0587 654.275 16.9C654.275 13.7413 655.027 10.9047 656.529 8.39C658.032 5.87533 660.087 3.91266 662.693 2.502C665.331 1.06066 668.275 0.339998 671.525 0.339998C674.163 0.339998 676.57 0.799999 678.747 1.72C680.925 2.64 682.765 3.974 684.267 5.722L680.403 9.356C678.073 6.84133 675.205 5.584 671.801 5.584C669.593 5.584 667.615 6.07467 665.867 7.056C664.119 8.00666 662.755 9.34066 661.773 11.058C660.792 12.7753 660.301 14.7227 660.301 16.9C660.301 19.0773 660.792 21.0247 661.773 22.742C662.755 24.4593 664.119 25.8087 665.867 26.79C667.615 27.7407 669.593 28.216 671.801 28.216C675.205 28.216 678.073 26.9433 680.403 24.398L684.267 28.078C682.765 29.826 680.909 31.16 678.701 32.08C676.524 33 674.117 33.46 671.479 33.46ZM712.828 5.86H702.156V33H696.222V5.86H685.596V0.799998H712.828V5.86ZM739.192 16.256C741.246 16.808 742.81 17.7587 743.884 19.108C744.957 20.4267 745.494 22.0827 745.494 24.076C745.494 26.8973 744.451 29.09 742.366 30.654C740.28 32.218 737.26 33 733.304 33H718.032V0.799998H732.43C736.048 0.799998 738.87 1.52066 740.894 2.962C742.918 4.40333 743.93 6.44267 743.93 9.08C743.93 10.7667 743.516 12.2233 742.688 13.45C741.89 14.6767 740.725 15.612 739.192 16.256ZM723.92 14.554H731.924C733.856 14.554 735.328 14.1707 736.34 13.404C737.352 12.6373 737.858 11.5027 737.858 10C737.858 8.49733 737.352 7.36267 736.34 6.596C735.328 5.79867 733.856 5.4 731.924 5.4H723.92V14.554ZM733.12 28.4C737.352 28.4 739.468 26.8053 739.468 23.616C739.468 20.488 737.352 18.924 733.12 18.924H723.92V28.4H733.12ZM776.456 27.986V33H752.306V0.799998H775.812V5.814H758.286V14.186H773.834V19.108H758.286V27.986H776.456ZM811.734 0.799998V33H805.754V19.2H789.102V33H783.122V0.799998H789.102V14.094H805.754V0.799998H811.734ZM849.379 0.799998V33H843.399V19.2H826.747V33H820.767V0.799998H826.747V14.094H843.399V0.799998H849.379ZM873.269 11.702C877.133 11.702 880.093 12.576 882.147 14.324C884.233 16.0413 885.275 18.602 885.275 22.006C885.275 25.5633 884.141 28.2927 881.871 30.194C879.602 32.0647 876.413 33 872.303 33H858.457V0.799998H864.345V11.702H873.269ZM872.027 28.4C874.358 28.4 876.152 27.8633 877.409 26.79C878.667 25.7167 879.295 24.1527 879.295 22.098C879.295 18.2033 876.873 16.256 872.027 16.256H864.345V28.4H872.027ZM889.921 0.799998H895.809V33H889.921V0.799998ZM934.439 33L934.393 11.656L923.813 29.32H921.145L910.565 11.932V33H904.907V0.799998H909.829L922.571 22.098L935.175 0.799998H940.051L940.143 33H934.439ZM976.678 33.46C973.428 33.46 970.484 32.7547 967.846 31.344C965.24 29.9027 963.185 27.9247 961.682 25.41C960.21 22.8953 959.474 20.0587 959.474 16.9C959.474 13.7413 960.226 10.9047 961.728 8.39C963.231 5.87533 965.286 3.91266 967.892 2.502C970.53 1.06066 973.474 0.339998 976.724 0.339998C979.362 0.339998 981.769 0.799999 983.946 1.72C986.124 2.64 987.964 3.974 989.466 5.722L985.602 9.356C983.272 6.84133 980.404 5.584 977 5.584C974.792 5.584 972.814 6.07467 971.066 7.056C969.318 8.00666 967.954 9.34066 966.972 11.058C965.991 12.7753 965.5 14.7227 965.5 16.9C965.5 19.0773 965.991 21.0247 966.972 22.742C967.954 24.4593 969.318 25.8087 971.066 26.79C972.814 27.7407 974.792 28.216 977 28.216C980.404 28.216 983.272 26.9433 985.602 24.398L989.466 28.078C987.964 29.826 986.108 31.16 983.9 32.08C981.723 33 979.316 33.46 976.678 33.46ZM1008.27 0.799998C1011.06 0.799998 1013.48 1.26 1015.53 2.18C1017.62 3.1 1019.21 4.41866 1020.32 6.136C1021.42 7.85333 1021.97 9.89267 1021.97 12.254C1021.97 14.5847 1021.42 16.624 1020.32 18.372C1019.21 20.0893 1017.62 21.408 1015.53 22.328C1013.48 23.248 1011.06 23.708 1008.27 23.708H1001V33H995.019V0.799998H1008.27ZM1007.99 18.648C1010.6 18.648 1012.58 18.096 1013.92 16.992C1015.27 15.888 1015.95 14.3087 1015.95 12.254C1015.95 10.1993 1015.27 8.62 1013.92 7.516C1012.58 6.412 1010.6 5.86 1007.99 5.86H1001V18.648H1007.99ZM1051.78 27.986V33H1027.63V0.799998H1051.14V5.814H1033.61V14.186H1049.16V19.108H1033.61V27.986H1051.78ZM1090.37 27.94V39.854H1084.85V33H1060.15V39.854H1054.58L1054.63 27.94H1056.01C1058.03 27.848 1059.45 26.3607 1060.24 23.478C1061.07 20.5647 1061.58 16.4093 1061.76 11.012L1062.13 0.799998H1085.73V27.94H1090.37ZM1067 11.564C1066.85 15.7347 1066.51 19.2153 1065.99 22.006C1065.47 24.766 1064.64 26.744 1063.51 27.94H1079.84V5.86H1067.23L1067 11.564ZM1110.82 33.46C1107.56 33.46 1104.62 32.7547 1101.98 31.344C1099.38 29.9027 1097.32 27.9247 1095.82 25.41C1094.35 22.8953 1093.61 20.0587 1093.61 16.9C1093.61 13.7413 1094.36 10.9047 1095.87 8.39C1097.37 5.87533 1099.42 3.91266 1102.03 2.502C1104.67 1.06066 1107.61 0.339998 1110.86 0.339998C1113.5 0.339998 1115.91 0.799999 1118.08 1.72C1120.26 2.64 1122.1 3.974 1123.6 5.722L1119.74 9.356C1117.41 6.84133 1114.54 5.584 1111.14 5.584C1108.93 5.584 1106.95 6.07467 1105.2 7.056C1103.46 8.00666 1102.09 9.34066 1101.11 11.058C1100.13 12.7753 1099.64 14.7227 1099.64 16.9C1099.64 19.0773 1100.13 21.0247 1101.11 22.742C1102.09 24.4593 1103.46 25.8087 1105.2 26.79C1106.95 27.7407 1108.93 28.216 1111.14 28.216C1114.54 28.216 1117.41 26.9433 1119.74 24.398L1123.6 28.078C1122.1 29.826 1120.25 31.16 1118.04 32.08C1115.86 33 1113.45 33.46 1110.82 33.46ZM1152.16 5.86H1141.49V33H1135.56V5.86H1124.93V0.799998H1152.16V5.86ZM1178.53 16.256C1180.58 16.808 1182.15 17.7587 1183.22 19.108C1184.29 20.4267 1184.83 22.0827 1184.83 24.076C1184.83 26.8973 1183.79 29.09 1181.7 30.654C1179.62 32.218 1176.6 33 1172.64 33H1157.37V0.799998H1171.77C1175.38 0.799998 1178.21 1.52066 1180.23 2.962C1182.25 4.40333 1183.27 6.44267 1183.27 9.08C1183.27 10.7667 1182.85 12.2233 1182.02 13.45C1181.23 14.6767 1180.06 15.612 1178.53 16.256ZM1163.26 14.554H1171.26C1173.19 14.554 1174.66 14.1707 1175.68 13.404C1176.69 12.6373 1177.19 11.5027 1177.19 10C1177.19 8.49733 1176.69 7.36267 1175.68 6.596C1174.66 5.79867 1173.19 5.4 1171.26 5.4H1163.26V14.554ZM1172.46 28.4C1176.69 28.4 1178.8 26.8053 1178.8 23.616C1178.8 20.488 1176.69 18.924 1172.46 18.924H1163.26V28.4H1172.46ZM1206.55 33.46C1203.26 33.46 1200.31 32.7547 1197.67 31.344C1195.03 29.9027 1192.96 27.9247 1191.46 25.41C1189.96 22.8647 1189.2 20.028 1189.2 16.9C1189.2 13.772 1189.96 10.9507 1191.46 8.436C1192.96 5.89066 1195.03 3.91266 1197.67 2.502C1200.31 1.06066 1203.26 0.339998 1206.55 0.339998C1209.83 0.339998 1212.79 1.06066 1215.42 2.502C1218.06 3.91266 1220.13 5.87533 1221.63 8.39C1223.14 10.9047 1223.89 13.7413 1223.89 16.9C1223.89 20.0587 1223.14 22.8953 1221.63 25.41C1220.13 27.9247 1218.06 29.9027 1215.42 31.344C1212.79 32.7547 1209.83 33.46 1206.55 33.46ZM1206.55 28.216C1208.69 28.216 1210.62 27.7407 1212.34 26.79C1214.06 25.8087 1215.41 24.4593 1216.39 22.742C1217.37 20.994 1217.86 19.0467 1217.86 16.9C1217.86 14.7533 1217.37 12.8213 1216.39 11.104C1215.41 9.356 1214.06 8.00666 1212.34 7.056C1210.62 6.07467 1208.69 5.584 1206.55 5.584C1204.4 5.584 1202.47 6.07467 1200.75 7.056C1199.03 8.00666 1197.68 9.356 1196.7 11.104C1195.72 12.8213 1195.23 14.7533 1195.23 16.9C1195.23 19.0467 1195.72 20.994 1196.7 22.742C1197.68 24.4593 1199.03 25.8087 1200.75 26.79C1202.47 27.7407 1204.4 28.216 1206.55 28.216ZM1260.08 33L1260.03 11.656L1249.45 29.32H1246.78L1236.2 11.932V33H1230.55V0.799998H1235.47L1248.21 22.098L1260.81 0.799998H1265.69L1265.78 33H1260.08Z" fill="#dda977"/>
</svg>
