<svg width="86" height="87" viewBox="0 0 86 87" fill="none" xmlns="http://www.w3.org/2000/svg">
<g clip-path="url(#clip0_203:556)">
<path d="M83.7806 0.636377C78.0935 4.93638 74.071 11.1783 72.6839 18.1138C72.5452 18.8073 72.9613 19.6396 73.7935 19.7783C74.4871 19.917 75.3194 19.5009 75.4581 18.6686C76.5677 13.259 79.3419 8.40412 83.2258 4.65896V44.7461H76.2903C75.5968 44.7461 74.9032 44.1912 74.9032 43.359V23.9396C74.9032 23.1073 74.3484 22.5525 73.5161 22.5525C72.6839 22.5525 72.129 23.1073 72.129 23.9396V43.359C72.129 45.1622 73.2387 46.688 74.9032 47.2428V80.8106C74.9032 83.8622 77.4 86.3589 80.4516 86.3589C83.5032 86.3589 86 83.8622 86 80.8106V63.4719C86 62.6396 85.4452 62.0848 84.6129 62.0848C83.7806 62.0848 83.2258 62.6396 83.2258 63.4719V80.8106C83.2258 82.3364 81.9774 83.5848 80.4516 83.5848C78.9258 83.5848 77.6774 82.3364 77.6774 80.8106V53.0686H83.2258V57.7848C83.2258 58.617 83.7806 59.1719 84.6129 59.1719C85.4452 59.1719 86 58.617 86 57.7848V1.74605C86 -0.0571711 84.1968 0.358958 83.7806 0.636377ZM83.2258 50.2944H77.6774V47.5202H83.2258V50.2944Z" fill="#1D71B8"/>
<path d="M4.16127 76.3728C4.99353 76.3728 5.54836 75.8179 5.54836 74.9857V71.6566C5.54836 70.8244 4.99353 70.2695 4.16127 70.2695C3.32901 70.2695 2.77417 70.8244 2.77417 71.6566V74.9857C2.77417 75.8179 3.32901 76.3728 4.16127 76.3728Z" fill="#1D71B8"/>
<path d="M15.2581 22.5529C16.0903 22.5529 16.6452 21.9981 16.6452 21.1658V1.74647C16.6452 0.914214 16.0903 0.359375 15.2581 0.359375C14.4258 0.359375 13.871 0.914214 13.871 1.74647V17.0045H9.70968V1.74647C9.70968 0.914214 9.15484 0.359375 8.32258 0.359375C7.49032 0.359375 6.93548 0.914214 6.93548 1.74647V17.0045H2.77419V1.74647C2.77419 0.914214 2.21935 0.359375 1.3871 0.359375C0.554839 0.359375 0 0.914214 0 1.74647V22.5529C0 25.0497 1.10968 27.2691 2.77419 28.7949V65.5529C2.77419 66.3852 3.32903 66.94 4.16129 66.94C4.99355 66.94 5.54839 66.3852 5.54839 65.5529V36.4239H11.0968V80.811C11.0968 82.3368 9.84839 83.5852 8.32258 83.5852C6.79677 83.5852 5.54839 82.3368 5.54839 80.811C5.54839 79.9787 4.99355 79.4239 4.16129 79.4239C3.32903 79.4239 2.77419 79.9787 2.77419 80.811C2.77419 83.8626 5.27097 86.3594 8.32258 86.3594C11.3742 86.3594 13.871 83.8626 13.871 80.811V28.7949C14.7032 28.1013 15.3968 27.1303 15.9516 26.0207C16.229 25.3271 15.9516 24.4949 15.2581 24.2174C14.5645 23.94 13.7323 24.2174 13.4548 24.911C12.4839 26.8529 10.5419 28.1013 8.32258 28.1013C5.27097 28.1013 2.77419 25.6045 2.77419 22.5529V19.7787H13.871V21.1658C13.871 21.8594 14.4258 22.5529 15.2581 22.5529ZM5.54839 30.3207C6.38065 30.7368 7.35161 30.8755 8.32258 30.8755C9.29355 30.8755 10.2645 30.7368 11.0968 30.3207V33.6497H5.54839V30.3207Z" fill="#1D71B8"/>
<path d="M43 17.0049C28.4355 17.0049 16.6451 28.7952 16.6451 43.3597C16.6451 57.9242 28.4355 69.7146 43 69.7146C43.8322 69.7146 44.3871 69.1597 44.3871 68.3275C44.3871 67.4952 43.8322 66.9404 43 66.9404C29.9613 66.9404 19.4193 56.3984 19.4193 43.3597C19.4193 30.321 29.9613 19.7791 43 19.7791C56.0387 19.7791 66.5806 30.321 66.5806 43.3597C66.5806 54.4565 59.0903 63.8888 48.4097 66.3855C47.7161 66.5242 47.1613 67.3565 47.4387 68.05C47.5774 68.7436 48.4097 69.2984 49.1032 69.021C61.0322 66.2468 69.3548 55.7049 69.3548 43.3597C69.3548 28.7952 57.5645 17.0049 43 17.0049Z" fill="#1D71B8"/>
<path d="M27.7419 43.3594C27.7419 42.5271 27.1871 41.9723 26.3548 41.9723C25.5226 41.9723 24.9677 42.5271 24.9677 43.3594C24.9677 53.3465 33.0129 61.3917 43 61.3917C52.9871 61.3917 61.0322 53.3465 61.0322 43.3594C61.0322 33.3723 52.9871 25.3271 43 25.3271C35.5096 25.3271 28.7129 30.0433 26.0774 37.1175C25.8 37.811 26.2161 38.6433 26.9096 38.9207C27.6032 39.1981 28.4355 38.782 28.7129 38.0884C30.9322 32.1239 36.6193 28.1013 43 28.1013C51.4613 28.1013 58.258 34.8981 58.258 43.3594C58.258 51.8207 51.4613 58.6175 43 58.6175C34.5387 58.6175 27.7419 51.8207 27.7419 43.3594Z" fill="#1D71B8"/>
<path d="M52.7097 43.3592C52.7097 44.1915 53.2645 44.7463 54.0968 44.7463C54.929 44.7463 55.4839 44.1915 55.4839 43.3592C55.4839 42.3882 55.3452 41.2786 55.0678 40.3076C54.929 39.614 54.0968 39.0592 53.4032 39.3366C52.7097 39.4753 52.1549 40.3076 52.4323 41.0011C52.571 41.6947 52.7097 42.527 52.7097 43.3592Z" fill="#1D71B8"/>
<path d="M43 30.876C42.1678 30.876 41.6129 31.4308 41.6129 32.2631C41.6129 33.0953 42.1678 33.6502 43 33.6502C45.7742 33.6502 48.4097 34.8986 50.3516 36.9792C50.629 37.2566 51.4613 37.8115 52.2936 37.1179C52.8484 36.5631 52.9871 35.7308 52.4323 35.176C49.9355 32.4018 46.6065 30.876 43 30.876Z" fill="#1D71B8"/>
</g>
<defs>
<clipPath id="clip0_203:556">
<rect width="86" height="86" fill="white" transform="translate(0 0.359375)"/>
</clipPath>
</defs>
</svg>
