<svg width="427" height="74" viewBox="0 0 427 74" fill="none" xmlns="http://www.w3.org/2000/svg">
<path d="M46.5749 55.1262C46.701 55.376 46.701 55.6258 46.701 55.8757C46.701 56.1255 46.701 56.2504 46.701 56.3753C46.5749 57.2497 45.8185 57.6244 44.5577 57.6244H37.3713C36.4888 57.6244 35.8584 57.3746 35.4802 56.9998C35.102 56.6251 34.8498 56.1255 34.7237 55.6258L32.9587 45.0086H18.712L14.4254 55.6258C14.1733 56.1255 13.7951 56.5002 13.2908 56.9998C12.7865 57.3746 12.03 57.6244 11.1475 57.6244H4.46541C3.20465 57.6244 2.57427 57.2497 2.70034 56.3753C2.70034 56.2504 2.70034 56.1255 2.82642 55.8757C2.95249 55.6258 2.95249 55.376 3.07857 55.1262L22.4943 11.2832C22.8726 10.4089 23.3769 9.65943 24.0072 9.2847C24.5116 8.90998 25.1419 8.66016 25.8984 8.66016H36.3627C37.1192 8.66016 37.6235 8.90997 38.0017 9.40961C38.2539 9.90924 38.506 10.5338 38.6321 11.1583L46.5749 55.1262ZM29.4285 17.029H29.1764L25.7723 26.3972L21.3596 36.7646H32.2022L30.5632 26.3972L29.4285 17.029Z" fill="#8E8F90"/>
<path d="M53.5091 37.6389L53.7613 27.896C53.7613 27.1466 53.7613 26.522 53.8873 26.0224C53.8873 25.5228 54.0134 25.1481 54.0134 25.0231C54.1395 24.0239 54.7699 23.3993 55.9046 23.2744L62.4605 21.6506C62.7127 21.5257 62.9648 21.5257 63.0909 21.5257H63.4691C63.9734 21.5257 64.3517 21.7755 64.6038 22.1502C64.856 22.525 64.856 23.1495 64.856 23.7741V27.0217H64.9821C66.495 25.148 68.3861 23.7741 70.5294 22.7748C72.6727 21.7755 75.0682 21.2759 77.7158 21.2759C79.6069 21.2759 81.4981 21.6506 83.137 22.525C84.776 23.3993 86.289 24.5235 87.4236 26.0224C88.5583 27.5213 89.4409 29.5199 89.9452 31.7682C90.4495 34.0166 90.5755 36.5147 90.1973 39.3877C89.8191 42.6353 88.9366 45.3833 87.8019 47.7565C86.6672 50.1298 85.1543 52.1283 83.5153 53.6273C81.8763 55.2511 80.1112 56.3752 78.094 57.1247C76.2028 57.8741 74.1856 58.2489 72.1684 58.2489C69.773 58.2489 67.7557 57.7492 65.9907 56.75C64.2256 55.7507 63.0909 54.6265 62.4605 53.5023H62.2084L60.8215 67.8669C60.8215 68.6163 60.6955 69.2409 60.6955 69.7405C60.5694 70.2401 60.5694 70.6148 60.5694 70.6148C60.4433 71.4892 60.0651 72.1138 59.5608 72.4885C59.0565 72.8632 58.3 73.113 57.5435 73.113L53.257 73.7376C52.8787 73.8625 52.5005 73.8625 52.1223 73.8625C51.744 73.8625 51.4919 73.8625 51.3658 73.8625C50.6094 73.8625 50.105 73.6127 49.6007 73.2379C49.2225 72.8632 49.0964 72.2387 49.0964 71.4892L53.5091 37.6389ZM63.9734 42.6353C63.7213 45.0085 63.9734 46.7573 64.9821 48.0064C65.9907 49.2554 67.5036 49.88 69.773 49.88C72.1684 49.88 74.1856 49.0056 75.8246 47.132C77.4636 45.3833 78.3461 42.8851 78.8505 39.8873C79.2287 37.0144 78.8505 34.6411 77.8418 32.7675C76.8332 30.8939 75.0682 29.8946 72.5466 29.8946C71.4119 29.8946 70.4033 30.1444 69.5208 30.5191C68.6383 30.8939 67.8818 31.5184 67.1254 32.1429C66.495 32.7675 65.8646 33.5169 65.4864 34.2664C65.1081 35.0158 64.856 35.8902 64.7299 36.6397L63.9734 42.6353Z" fill="#8E8F90"/>
<path d="M96.8794 30.6442C96.249 30.6442 95.6186 30.3944 95.2404 30.0196C94.8622 29.6449 94.7361 29.0204 94.7361 28.3958L95.2404 24.3987C95.3665 23.7742 95.6186 23.1497 96.1229 22.7749C96.6272 22.4002 97.2576 22.1504 97.888 22.1504H126.381C126.886 22.1504 127.264 22.2753 127.642 22.65C127.894 23.0247 128.02 23.3995 127.894 24.024C127.894 24.024 127.894 24.2738 127.768 24.5237C127.768 24.7735 127.642 25.0233 127.516 25.2731L126.633 28.5207C126.255 29.8947 125.373 30.5193 124.112 30.5193H116.421L113.143 55.1263C113.017 55.7508 112.765 56.3754 112.387 56.7501C111.882 57.1248 111.378 57.3747 110.748 57.3747H104.066C103.435 57.3747 102.931 57.1248 102.553 56.7501C102.175 56.3754 102.049 55.7508 102.175 55.1263L105.453 30.5193H96.8794V30.6442Z" fill="#8E8F90"/>
<path d="M132.181 37.6389L132.433 27.896C132.433 27.1466 132.433 26.522 132.559 26.0224C132.559 25.5228 132.685 25.1481 132.685 25.0231C132.811 24.0239 133.442 23.3993 134.576 23.2744L141.132 21.6506C141.384 21.5257 141.636 21.5257 141.763 21.5257H142.141C142.645 21.5257 143.023 21.7755 143.275 22.1502C143.528 22.525 143.528 23.1495 143.528 23.7741V27.0217H143.654C145.167 25.148 147.058 23.7741 149.201 22.7748C151.344 21.7755 153.74 21.2759 156.387 21.2759C158.279 21.2759 160.17 21.6506 161.809 22.525C163.448 23.3993 164.961 24.5235 166.095 26.0224C167.23 27.5213 168.113 29.5199 168.617 31.7682C169.121 34.0166 169.247 36.5147 168.869 39.3877C168.491 42.6353 167.608 45.3833 166.474 47.7565C165.339 50.1298 163.826 52.1283 162.187 53.6273C160.548 55.2511 158.783 56.3752 156.766 57.1247C154.875 57.8741 152.857 58.2489 150.84 58.2489C148.445 58.2489 146.427 57.7492 144.662 56.75C142.897 55.7507 141.763 54.6265 141.132 53.5023H140.88L139.493 67.8669C139.493 68.6163 139.367 69.2409 139.367 69.7405C139.241 70.2401 139.241 70.6148 139.241 70.6148C139.115 71.4892 138.737 72.1138 138.232 72.4885C137.728 72.8632 136.972 73.113 136.215 73.113L131.929 73.7376C131.55 73.8625 131.172 73.8625 130.794 73.8625C130.416 73.8625 130.164 73.8625 130.037 73.8625C129.281 73.8625 128.777 73.6127 128.272 73.2379C127.894 72.8632 127.768 72.2387 127.768 71.4892L132.181 37.6389ZM142.645 42.6353C142.393 45.0085 142.645 46.7573 143.654 48.0064C144.662 49.2554 146.175 49.88 148.445 49.88C150.84 49.88 152.857 49.0056 154.496 47.132C156.135 45.3833 157.018 42.8851 157.522 39.8873C157.9 37.0144 157.522 34.6411 156.513 32.7675C155.505 30.8939 153.74 29.8946 151.218 29.8946C150.084 29.8946 149.075 30.1444 148.192 30.5191C147.31 30.8939 146.553 31.5184 145.797 32.1429C145.167 32.7675 144.536 33.5169 144.158 34.2664C143.78 35.0158 143.528 35.8902 143.402 36.6397L142.645 42.6353Z" fill="#8E8F90"/>
<path d="M190.302 58.3739C187.654 58.3739 185.259 57.9992 183.116 57.1248C180.972 56.2504 179.207 55.1263 177.694 53.5024C176.181 51.8786 175.173 50.005 174.542 47.7566C173.912 45.5083 173.786 42.8852 174.164 40.1372C174.542 37.2643 175.299 34.7661 176.56 32.3929C177.82 30.0196 179.333 28.146 181.224 26.5221C183.116 24.8983 185.259 23.6492 187.78 22.7749C190.302 21.9005 192.95 21.4009 195.849 21.4009C198.623 21.4009 201.018 21.9005 203.162 22.7749C205.305 23.6492 207.07 24.8983 208.457 26.5221C209.844 28.146 210.852 30.0196 211.357 32.2679C211.987 34.5163 212.113 37.0145 211.735 39.6376C211.357 42.8852 210.348 45.6332 208.961 48.0065C207.574 50.3797 205.935 52.3783 203.918 53.8772C201.901 55.3761 199.758 56.6252 197.488 57.3746C195.093 57.9992 192.697 58.3739 190.302 58.3739ZM191.563 50.5046C193.706 50.5046 195.597 49.5054 197.11 47.6317C198.623 45.6332 199.632 43.135 200.01 39.8874C200.136 38.6383 200.262 37.2643 200.136 36.0152C200.01 34.7661 199.758 33.6419 199.379 32.6427C199.001 31.6434 198.371 30.769 197.488 30.2694C196.606 29.6449 195.597 29.395 194.336 29.395C193.076 29.395 191.815 29.6449 190.806 30.2694C189.798 30.894 188.915 31.6434 188.159 32.6427C187.402 33.6419 186.898 34.7661 186.394 36.1401C186.015 37.3892 185.637 38.7632 185.511 40.0123C185.259 41.5112 185.259 42.8852 185.385 44.2592C185.511 45.5083 185.889 46.6325 186.268 47.6317C186.772 48.631 187.402 49.2555 188.285 49.8801C189.419 50.2548 190.428 50.5046 191.563 50.5046Z" fill="#8E8F90"/>
<path d="M237.707 62.8705C236.194 62.8705 234.807 62.2459 234.05 61.1218C233.546 60.3723 232.916 59.2481 233.168 57.4994L233.546 54.8763C231.655 54.5016 229.764 54.002 227.999 53.2525C225.351 52.1283 222.956 50.6294 220.938 48.6309C218.921 46.6323 217.534 44.1342 216.526 41.2613C215.517 38.3884 215.265 35.1407 215.769 31.5184C216.274 27.6462 217.408 24.3986 219.3 21.5257C221.065 18.7777 223.208 16.5293 225.729 14.6557C228.125 12.907 230.772 11.533 233.672 10.5337C235.689 9.90917 237.707 9.40953 239.598 9.03481L239.85 7.16118C239.976 5.91209 240.606 4.78791 241.489 3.91355C242.498 3.03919 243.758 2.53955 245.145 2.53955H251.449C252.962 2.53955 254.349 3.16409 255.105 4.28827C255.609 5.03773 256.24 6.1619 255.988 7.91063L255.862 9.15971C257.501 9.40953 259.14 9.90917 260.779 10.5337C263.426 11.533 265.822 12.907 267.839 14.7806C269.982 16.6542 271.621 19.1524 272.63 21.9004C273.764 24.7733 274.017 28.1458 273.512 32.018C273.008 35.5155 271.999 38.7631 270.234 41.5111C268.595 44.2591 266.578 46.6323 264.057 48.506C261.661 50.3796 259.014 51.8785 256.114 53.0027C253.97 53.7521 251.827 54.3767 249.558 54.6265L249.18 57.7492C249.054 58.9983 248.423 60.1225 247.541 60.9969C246.532 61.8712 245.271 62.3708 243.884 62.3708H237.707V62.8705ZM237.833 23.0246C237.202 23.3993 236.572 23.774 236.068 24.2737C235.185 25.0231 234.429 26.0224 233.798 27.2715C233.168 28.5206 232.664 30.1444 232.411 32.018C232.159 33.6418 232.285 35.1407 232.538 36.3898C232.79 37.6389 233.294 38.7631 233.924 39.5125C234.429 40.1371 234.933 40.7616 235.437 41.1364L237.833 23.0246ZM251.323 40.8865C251.953 40.5118 252.584 40.0122 253.088 39.3876C253.97 38.5133 254.853 37.2642 255.483 36.0151C256.114 34.766 256.618 33.1422 256.87 31.5184C257.122 29.6448 257.122 28.1458 256.744 26.8968C256.366 25.7726 255.988 24.7733 255.357 24.1488C254.853 23.5242 254.223 23.1495 253.592 22.7748L251.323 40.8865Z" fill="#8E8F90"/>
<path d="M236.572 52.6281C233.924 52.3783 231.403 51.8787 229.007 50.8794C226.612 49.8801 224.595 48.5061 222.956 46.8823C221.317 45.1336 220.056 43.0101 219.173 40.512C218.291 38.0138 218.165 35.1409 218.543 32.0182C219.047 28.6456 220.056 25.6478 221.569 23.1496C223.208 20.6515 225.099 18.6529 227.242 17.0291C229.512 15.4053 231.907 14.1562 234.429 13.2818C236.95 12.4075 239.472 11.9079 241.867 11.658L242.372 7.66096C242.498 7.03641 242.75 6.41187 243.128 6.03714C243.632 5.66242 244.137 5.4126 244.767 5.4126H251.071C251.701 5.4126 252.205 5.66242 252.584 6.03714C252.962 6.41187 253.088 7.03641 252.962 7.66096L252.458 11.658C254.853 11.9079 257.249 12.4075 259.518 13.2818C261.913 14.1562 263.931 15.4053 265.696 17.0291C267.461 18.6529 268.848 20.6515 269.856 23.1496C270.865 25.6478 270.991 28.5207 270.613 32.0182C270.234 35.1409 269.226 38.0138 267.713 40.512C266.2 43.0101 264.435 45.1336 262.166 46.8823C260.022 48.631 257.627 50.005 254.979 50.8794C252.332 51.8787 249.684 52.3783 247.036 52.6281L246.28 57.8743C246.154 58.4988 245.902 59.1234 245.523 59.4981C245.019 59.8728 244.515 60.1226 243.884 60.1226H237.581C236.95 60.1226 236.446 59.8728 236.068 59.4981C235.689 59.1234 235.563 58.4988 235.689 57.8743L236.572 52.6281ZM241.111 19.1526C239.976 19.2775 238.841 19.6522 237.581 20.1518C236.32 20.6515 235.185 21.4009 234.177 22.4002C233.042 23.3995 232.159 24.6485 231.277 26.1475C230.394 27.6464 229.89 29.52 229.638 31.7683C229.386 33.7669 229.386 35.6405 229.764 37.1394C230.142 38.7632 230.772 40.1372 231.529 41.2614C232.411 42.3856 233.294 43.26 234.303 43.8845C235.311 44.509 236.446 44.8838 237.581 45.0087L241.111 19.1526ZM248.045 45.1336C249.18 45.0087 250.314 44.6339 251.575 44.0094C252.836 43.3849 253.971 42.5105 255.105 41.3863C256.24 40.2621 257.249 38.8881 258.005 37.2643C258.761 35.6405 259.392 33.8918 259.644 31.8933C259.896 29.6449 259.896 27.7713 259.392 26.2724C259.014 24.7735 258.383 23.5244 257.501 22.5251C256.618 21.5258 255.736 20.7764 254.601 20.2767C253.466 19.7771 252.458 19.4024 251.323 19.2775L248.045 45.1336Z" fill="#8E8F90"/>
<path d="M270.36 61.1216C270.108 61.1216 269.73 61.1216 269.352 61.1216C268.595 60.9967 267.965 60.8717 267.335 60.497C266.704 60.1223 266.2 59.6227 265.822 58.9981C265.443 58.2487 265.191 57.4992 265.191 56.4999L265.444 52.6278C265.444 52.253 265.444 51.8783 265.57 51.5036V51.1289C265.822 49.2552 266.704 48.3809 267.461 47.8812C268.091 47.5065 268.721 47.3816 269.352 47.3816C270.234 47.3816 270.865 47.2567 271.369 47.0069C271.873 46.7571 272.252 46.3823 272.63 45.7578C273.134 45.0083 273.638 43.8842 274.017 42.3853C274.395 40.7614 274.899 38.638 275.404 36.1398L277.673 24.1486C277.925 22.8995 278.429 21.9002 279.186 21.1508C280.068 20.1515 281.329 19.6519 282.842 19.6519H306.04C307.553 19.6519 308.94 20.2764 309.696 21.4006C310.201 22.15 310.831 23.2742 310.579 25.0229L306.544 55.7505C306.418 56.9996 305.788 58.1237 304.905 58.9981C303.897 59.9974 302.636 60.3721 301.249 60.3721H294.567C293.054 60.3721 291.667 59.7476 290.911 58.6234C290.407 57.9989 289.776 56.7498 290.028 55.001L292.928 33.3918H291.163L290.028 39.1376C289.272 43.0098 288.515 46.2574 287.759 48.8805C286.876 51.7534 285.742 54.1267 284.229 55.8754C282.716 57.8739 280.699 59.2479 278.303 60.1223C276.16 60.8717 273.638 61.1216 270.36 61.1216Z" fill="#8E8F90"/>
<path d="M280.447 24.5237C280.573 23.8992 280.825 23.2747 281.329 22.8999C281.707 22.4003 282.338 22.2754 282.968 22.2754H306.166C306.796 22.2754 307.301 22.5252 307.679 22.8999C308.057 23.2747 308.183 23.8992 308.057 24.5237L304.023 55.3762C303.897 56.0008 303.645 56.6253 303.266 57C302.762 57.3747 302.258 57.6246 301.627 57.6246H294.945C294.315 57.6246 293.811 57.3747 293.432 57C293.054 56.6253 292.928 56.0008 293.054 55.3762L296.332 30.6443H289.146L287.633 38.6384C286.876 42.3857 286.246 45.5084 285.364 48.1315C284.607 50.6297 283.598 52.7531 282.338 54.252C281.077 55.8759 279.564 56.8751 277.673 57.6246C275.782 58.2491 273.512 58.6238 270.613 58.6238C270.36 58.6238 270.234 58.6238 269.856 58.6238C269.604 58.6238 269.352 58.4989 269.1 58.374C268.848 58.2491 268.595 57.9993 268.469 57.7495C268.343 57.4997 268.217 57.1249 268.217 56.7502L268.469 53.0029C268.469 52.6282 268.469 52.2535 268.469 52.0037C268.469 51.7539 268.469 51.504 268.595 51.504C268.721 50.8795 268.848 50.5048 269.1 50.3799C269.352 50.255 269.604 50.13 269.73 50.13C270.991 50.13 272.126 49.8802 273.008 49.3806C273.891 48.881 274.647 48.1315 275.277 47.1322C275.908 46.133 276.412 44.759 276.916 43.0102C277.421 41.2615 277.799 39.1381 278.303 36.6399L280.447 24.5237Z" fill="#8E8F90"/>
<path d="M330.121 60.9968C323.186 60.9968 318.017 58.9983 314.613 55.251C311.209 51.3788 309.822 46.2576 310.705 39.8872C311.083 37.3891 311.713 34.8909 312.848 32.3927C313.983 29.8945 315.622 27.5213 317.513 25.5227C319.404 23.5242 321.8 21.7755 324.573 20.5264C327.347 19.2773 330.499 18.5278 334.029 18.5278C337.307 18.5278 340.207 19.1524 342.476 20.2766C344.872 21.5256 346.637 23.1495 347.897 25.3978C349.158 27.3964 349.915 29.8945 350.293 32.5176C350.545 35.1407 350.545 37.8887 350.167 40.8865C349.789 44.1341 347.645 46.0078 344.493 46.0078H327.599C327.599 46.0078 327.725 46.0078 327.725 46.1327C328.356 46.5074 328.986 46.7572 329.868 47.007C330.751 47.2569 331.76 47.3818 332.894 47.3818C334.155 47.3818 335.416 47.2569 336.551 47.1319C337.685 47.007 338.82 46.8821 339.829 46.6323L340.459 46.5074C340.963 46.3825 341.467 46.2576 341.972 46.2576C342.854 46.2576 343.737 46.5074 344.367 47.007C344.998 47.3818 345.628 48.2561 345.88 49.6301L346.132 53.7521V54.0019C346.132 54.5016 346.132 54.8763 346.132 55.0012C345.88 56.7499 344.998 57.7492 344.241 58.3737C343.611 58.8734 342.98 59.1232 342.476 59.2481C338.442 60.4972 334.407 60.9968 330.121 60.9968ZM334.912 33.1422C334.912 32.8923 334.785 32.7674 334.659 32.5176C334.533 32.1429 334.281 31.8931 333.903 31.6433C333.777 31.5183 333.399 31.3934 332.516 31.3934C331.76 31.3934 331.129 31.5183 330.625 31.7682C329.995 32.1429 329.49 32.5176 328.986 33.0173L328.86 33.1422H334.912Z" fill="#8E8F90"/>
<path d="M323.565 43.3847C323.565 44.5089 323.691 45.5082 324.195 46.3825C324.699 47.2569 325.33 47.8814 326.086 48.506C326.969 49.0056 327.977 49.5053 329.112 49.7551C330.247 50.0049 331.507 50.1298 332.768 50.1298C334.155 50.1298 335.542 50.0049 336.677 49.88C337.937 49.7551 339.072 49.5053 340.207 49.2554C340.459 49.2554 340.711 49.1305 340.963 49.1305C341.215 49.0056 341.468 49.0056 341.72 49.0056C341.972 49.0056 342.224 49.1305 342.476 49.2554C342.728 49.3803 342.854 49.7551 342.854 50.1298L343.107 53.7522C343.107 53.8771 343.107 54.002 343.107 54.2518C343.107 54.5016 343.107 54.6265 343.107 54.7514C342.98 55.376 342.728 55.8756 342.35 56.2503C341.972 56.5001 341.594 56.75 341.215 56.8749C337.811 57.8741 334.029 58.3738 329.995 58.3738C323.943 58.3738 319.404 56.75 316.504 53.5023C313.605 50.2547 312.596 45.8829 313.226 40.262C313.479 38.0137 314.235 35.7653 315.244 33.5169C316.252 31.2686 317.639 29.27 319.404 27.3964C321.169 25.6477 323.186 24.1488 325.582 23.0246C327.977 21.9004 330.751 21.2759 333.777 21.2759C336.677 21.2759 339.072 21.7755 340.963 22.7748C342.854 23.7741 344.367 25.1481 345.376 26.7719C346.384 28.5206 347.015 30.5191 347.393 32.8924C347.645 35.2657 347.645 37.7638 347.267 40.5118C347.015 42.3855 346.006 43.2598 344.367 43.2598H323.565V43.3847ZM337.685 35.8902C337.811 35.2657 337.811 34.5162 337.685 33.6418C337.685 32.7675 337.433 32.018 337.055 31.2686C336.677 30.5191 336.172 29.8946 335.416 29.3949C334.659 28.8953 333.651 28.6455 332.39 28.6455C331.255 28.6455 330.121 28.8953 329.238 29.3949C328.356 29.8946 327.473 30.5191 326.843 31.1437C326.212 31.7682 325.708 32.6426 325.204 33.5169C324.825 34.3913 324.573 35.1408 324.321 35.8902H337.685Z" fill="#8E8F90"/>
<path d="M376.391 60.3725C374.752 60.3725 373.617 59.9978 372.734 59.2483C372.104 58.7487 371.6 58.1241 370.969 57.2498L370.843 57.1249L367.313 50.13L366.557 55.7509C366.431 57 365.8 58.1241 364.918 58.9985C363.909 59.8729 362.648 60.3725 361.261 60.3725H354.579C353.066 60.3725 351.68 59.748 350.923 58.6238C350.419 57.9992 349.789 56.7501 350.041 55.0014L354.075 24.149C354.201 22.8999 354.832 21.7757 355.714 20.9013C356.597 20.027 357.857 19.5273 359.37 19.5273H366.052C367.565 19.5273 368.952 20.1519 369.709 21.2761C370.213 21.9006 370.843 23.1497 370.591 24.8984L370.213 27.6464L374.121 22.5252C374.878 21.5259 375.634 20.9013 376.391 20.4017C377.273 19.9021 378.408 19.5273 379.921 19.5273H387.864C388.872 19.5273 389.755 19.7772 390.511 20.2768C391.646 21.0263 392.276 22.4002 392.024 23.7742C392.024 24.0241 391.898 24.3988 391.772 24.8984C391.52 25.523 391.142 26.1475 390.637 26.7721L379.921 39.0131L389.376 53.8772C389.755 54.5018 390.007 55.1263 390.133 55.8758C390.133 56.3754 390.133 56.7501 390.133 57C390.007 58.2491 389.25 59.2483 388.116 59.8729C387.359 60.2476 386.477 60.4974 385.468 60.4974H376.391V60.3725Z" fill="#8E8F90"/>
<path d="M376.517 24.024C377.021 23.3995 377.525 22.8998 378.03 22.5251C378.534 22.2753 379.164 22.1504 380.173 22.1504H388.116C388.62 22.1504 388.998 22.2753 389.25 22.4002C389.503 22.65 389.629 22.8998 389.629 23.2746C389.629 23.3995 389.503 23.6493 389.503 23.8991C389.377 24.1489 389.25 24.3987 388.998 24.6486L376.769 38.5134L387.359 55.0014C387.611 55.2512 387.611 55.501 387.738 55.7508C387.738 56.0007 387.738 56.1256 387.738 56.3754C387.738 56.7501 387.485 56.9999 387.107 57.2498C386.729 57.4996 386.351 57.4996 385.846 57.4996H376.643C375.76 57.4996 375.13 57.3747 374.752 57.1248C374.373 56.875 373.995 56.3754 373.617 55.6259L366.052 41.2614H365.8L363.909 55.3761C363.783 56.0007 363.531 56.6252 363.153 56.9999C362.648 57.3747 362.144 57.6245 361.514 57.6245H354.832C354.201 57.6245 353.697 57.3747 353.319 56.9999C352.94 56.6252 352.814 56.0007 352.94 55.3761L356.975 24.5237C357.101 23.8991 357.353 23.2746 357.731 22.8998C358.236 22.5251 358.74 22.2753 359.37 22.2753H366.052C366.683 22.2753 367.187 22.5251 367.565 22.8998C367.944 23.2746 368.07 23.8991 367.944 24.5237L366.305 37.2643H366.431L376.517 24.024Z" fill="#8E8F90"/>
<path d="M410.179 60.9969C407.027 60.9969 404.127 60.4973 401.606 59.498C398.958 58.4987 396.815 56.9998 395.05 55.1262C393.285 53.2526 392.024 50.8793 391.394 48.2562C390.763 45.6331 390.637 42.7602 391.016 39.7624C391.394 36.8895 392.276 34.1415 393.537 31.6433C394.924 29.0203 396.689 26.7719 398.832 24.8983C401.102 23.0246 403.623 21.4008 406.649 20.2766C409.675 19.1525 412.953 18.6528 416.609 18.6528C417.744 18.6528 419.004 18.7777 420.139 18.9026C421.4 19.0276 422.535 19.2774 423.543 19.5272C424.3 19.777 424.804 20.0268 425.434 20.5265C426.317 21.151 427.199 22.2752 426.821 24.6485C426.821 25.0232 426.695 25.5228 426.443 26.2723L425.182 30.2694C424.678 31.7683 423.795 32.3928 423.165 32.7675C422.535 33.1423 421.778 33.2672 421.022 33.2672C420.517 33.2672 420.139 33.2672 419.761 33.1423L419.131 33.0173C418.374 32.8924 417.239 32.7675 416.105 32.7675C414.97 32.7675 413.961 32.8924 413.079 33.2672C412.196 33.6419 411.314 34.1415 410.557 34.7661C409.801 35.3906 409.297 36.1401 408.792 37.0144C408.288 38.0137 408.036 39.013 407.91 40.1371C407.784 41.3862 407.784 42.5104 408.036 43.3848C408.288 44.2591 408.666 44.8837 409.171 45.3833C409.675 45.8829 410.179 46.2577 410.936 46.5075C411.818 46.7573 412.701 47.0071 413.709 47.0071C414.34 47.0071 414.844 47.0071 415.348 46.8822L417.239 46.6324L417.996 46.5075C418.5 46.3826 418.878 46.3826 419.257 46.3826C421.274 46.3826 422.787 47.7566 423.039 49.88L423.291 54.002C423.291 54.2518 423.291 54.6266 423.291 54.8764C423.291 55.2511 423.291 55.5009 423.291 55.6258C423.039 57.3746 422.156 58.3738 421.4 58.8735C420.77 59.3731 420.265 59.6229 419.761 59.8727C416.861 60.6222 413.709 60.9969 410.179 60.9969Z" fill="#8E8F90"/>
<path d="M420.391 54.1271C420.391 54.3769 420.391 54.6267 420.391 54.8765C420.391 55.1263 420.391 55.2513 420.391 55.3762C420.265 56.0007 420.013 56.5003 419.635 56.7502C419.257 57 418.878 57.2498 418.626 57.3747C416.357 57.9992 413.583 58.374 410.179 58.374C407.279 58.374 404.758 57.9992 402.488 57.1249C400.219 56.2505 398.454 55.1263 396.941 53.5025C395.554 51.8787 394.42 50.0051 393.915 47.7567C393.285 45.5084 393.285 43.0102 393.537 40.2622C393.915 37.764 394.672 35.2658 395.806 33.0175C396.941 30.7691 398.58 28.7706 400.471 27.0219C402.489 25.2731 404.758 23.8991 407.406 23.0248C410.053 22.0255 413.079 21.5259 416.357 21.5259C417.366 21.5259 418.5 21.5259 419.635 21.6508C420.77 21.7757 421.778 21.9006 422.661 22.1504C422.913 22.2753 423.291 22.4002 423.543 22.6501C423.922 22.8999 424.048 23.3995 423.921 24.2739C423.921 24.5237 423.795 24.8984 423.669 25.398L422.409 29.3951C422.283 29.7699 422.03 30.1446 421.778 30.2695C421.526 30.3944 421.148 30.5193 420.896 30.5193C420.644 30.5193 420.391 30.5193 420.265 30.3944C420.013 30.3944 419.887 30.2695 419.635 30.2695C418.5 30.0197 417.239 29.8948 415.853 29.8948C414.34 29.8948 413.079 30.1446 411.818 30.6442C410.557 31.1439 409.423 31.7684 408.54 32.6428C407.658 33.5171 406.775 34.5164 406.145 35.7655C405.514 37.0146 405.136 38.2637 405.01 39.7626C404.758 41.3864 404.884 42.8853 405.262 44.1344C405.64 45.3835 406.145 46.3827 406.901 47.2571C407.658 48.1314 408.666 48.756 409.801 49.1307C410.936 49.5054 412.196 49.7553 413.583 49.7553C414.34 49.7553 414.97 49.7553 415.6 49.6303C416.231 49.5054 416.861 49.3805 417.492 49.3805C417.744 49.3805 417.996 49.2556 418.374 49.2556C418.626 49.2556 419.005 49.1307 419.131 49.1307C419.761 49.1307 420.139 49.5054 420.139 50.13L420.391 54.1271Z" fill="#8E8F90"/>
<path d="M23.1247 24.0238L26.5288 14.6556H26.7809L27.9156 24.0238L29.6807 34.3912H18.8381L23.1247 24.0238ZM23.1247 6.41162C22.4944 6.41162 21.864 6.66144 21.2336 7.03616C20.7293 7.41089 20.225 8.03544 19.7207 9.03471L0.430988 52.7528C0.304911 53.0026 0.178836 53.2524 0.178836 53.5022C0.05276 53.752 0.0527596 53.877 0.0527596 54.0019C-0.0733168 54.8762 0.557065 55.2509 1.81783 55.2509H8.49987C9.38241 55.2509 10.0128 55.0011 10.6432 54.6264C11.1475 54.2517 11.5257 53.752 11.7779 53.2524L16.0645 42.6352H30.3111L32.0762 53.2524C32.2022 53.752 32.4544 54.1268 32.8326 54.6264C33.2108 55.0011 33.8412 55.2509 34.7238 55.2509H41.9101C43.1709 55.2509 43.9273 54.8762 44.0534 54.0019C44.0534 53.877 44.0534 53.752 44.0534 53.5022C44.0534 53.2524 43.9273 53.0026 43.9273 52.7528L35.9845 8.90979C35.8584 8.28525 35.6063 7.66071 35.3541 7.16107C35.102 6.66144 34.4716 6.41162 33.7151 6.41162H23.1247Z" fill="url(#paint0_linear)"/>
<path d="M62.2084 45.6329C61.1998 44.3838 60.9477 42.5102 61.1998 40.2618L61.9563 34.516C62.0823 33.6417 62.3345 32.8922 62.7127 32.1428C63.091 31.3933 63.5953 30.6439 64.3517 30.0193C64.9821 29.3948 65.8646 28.8951 66.7472 28.3955C67.6297 28.0208 68.6383 27.771 69.773 27.771C72.2945 27.771 74.0596 28.7702 75.0682 30.6439C76.0768 32.5175 76.455 34.8908 76.0768 37.7637C75.6986 40.7615 74.69 43.2596 73.051 45.0084C71.412 46.882 69.5208 47.7564 66.9993 47.7564C64.856 47.5065 63.217 46.882 62.2084 45.6329ZM67.7558 20.4013C65.6125 21.4006 63.7213 22.7746 62.2084 24.6482H62.0823V21.4006C62.0823 20.7761 61.9563 20.1515 61.8302 19.7768C61.578 19.4021 61.3259 19.1523 60.6955 19.1523H60.3173C60.0651 19.1523 59.939 19.1523 59.6869 19.2772L53.1309 20.901C51.9962 21.1508 51.3658 21.6504 51.2398 22.6497C51.2398 22.7746 51.2398 23.1493 51.1137 23.649C51.1137 24.1486 50.9876 24.7731 50.9876 25.5226L50.7355 35.2655L46.1967 69.4905C46.0706 70.2399 46.1967 70.7396 46.701 71.2392C47.0793 71.6139 47.7096 71.8638 48.4661 71.8638C48.5922 71.8638 48.8443 71.8638 49.2226 71.8638C49.6008 71.8638 49.979 71.7388 50.3572 71.7388L54.6438 71.1143C55.4003 70.9894 56.1568 70.7396 56.6611 70.3648C57.1654 69.9901 57.5436 69.3656 57.6697 68.4912C57.6697 68.4912 57.6697 68.1165 57.7957 67.6169C57.7957 67.1172 57.9218 66.4927 57.9218 65.7432L59.3087 51.2538H59.5608C60.1912 52.378 61.452 53.5022 63.091 54.5014C64.856 55.5007 66.8732 56.0003 69.2687 56.0003C71.2859 56.0003 73.3031 55.6256 75.1943 54.8762C77.2115 54.1267 78.9766 52.8776 80.6156 51.3787C82.2546 49.7549 83.6414 47.8813 84.9022 45.508C86.0368 43.1347 86.9194 40.3867 87.2976 37.1391C87.6758 34.3911 87.5498 31.768 87.0455 29.5197C86.5412 27.2713 85.6586 25.3977 84.5239 23.7739C83.3892 22.275 81.8763 21.0259 80.2373 20.2764C78.5983 19.4021 76.7072 19.0273 74.8161 19.0273C72.1685 19.0273 69.8991 19.527 67.7558 20.4013Z" fill="url(#paint1_linear)"/>
<path d="M95.2404 19.7773C94.61 19.7773 93.9796 20.0272 93.4753 20.4019C92.971 20.7766 92.7189 21.2762 92.5928 22.0257L92.0885 26.0228C91.9624 26.6473 92.0885 27.2719 92.5928 27.6466C92.971 28.0213 93.4753 28.2711 94.2318 28.2711H102.679L99.4009 52.8782C99.2749 53.5027 99.4009 54.1273 99.7792 54.502C100.157 54.8767 100.662 55.1265 101.292 55.1265H107.974C108.604 55.1265 109.235 54.8767 109.613 54.502C110.117 54.1273 110.37 53.5027 110.37 52.8782L113.648 28.2711H121.338C122.599 28.2711 123.482 27.6466 123.86 26.2726L124.868 23.025C124.994 22.7752 124.994 22.5253 125.121 22.2755C125.247 22.0257 125.247 21.7759 125.247 21.7759C125.373 21.2763 125.247 20.7766 124.994 20.4019C124.742 20.0272 124.364 19.9023 123.734 19.9023H95.2404V19.7773Z" fill="url(#paint2_linear)"/>
<path d="M140.88 45.633C139.871 44.3839 139.619 42.5102 139.871 40.2619L140.628 34.5161C140.754 33.6417 141.006 32.8923 141.384 32.1428C141.763 31.3934 142.267 30.6439 143.023 30.0194C143.654 29.3948 144.536 28.8952 145.419 28.3955C146.301 28.0208 147.31 27.771 148.445 27.771C150.966 27.771 152.731 28.7703 153.74 30.6439C154.748 32.5175 155.127 34.8908 154.748 37.7637C154.37 40.7615 153.362 43.2597 151.723 45.0084C150.084 46.882 148.192 47.7564 145.671 47.7564C143.528 47.5066 141.889 46.882 140.88 45.633ZM146.427 20.4014C144.284 21.4007 142.393 22.7747 140.88 24.6483H140.754V21.4007C140.754 20.7761 140.628 20.1516 140.502 19.7768C140.25 19.4021 139.997 19.1523 139.367 19.1523H138.989C138.737 19.1523 138.611 19.1523 138.359 19.2772L131.803 20.901C130.668 21.1508 130.037 21.6505 129.911 22.6497C129.911 22.7746 129.911 23.1494 129.785 23.649C129.785 24.1486 129.659 24.7732 129.659 25.5226L129.407 35.2655L124.868 69.4905C124.742 70.24 124.868 70.7396 125.373 71.2392C125.751 71.614 126.381 71.8638 127.138 71.8638C127.264 71.8638 127.516 71.8638 127.894 71.8638C128.272 71.8638 128.651 71.7389 129.029 71.7389L133.315 71.1143C134.072 70.9894 134.828 70.7396 135.333 70.3649C135.837 69.9902 136.215 69.3656 136.341 68.4913C136.341 68.4913 136.341 68.1165 136.467 67.6169C136.593 67.1173 136.593 66.4927 136.593 65.7433L137.98 51.3788H138.232C138.863 52.5029 140.124 53.6271 141.763 54.6264C143.528 55.6256 145.545 56.1253 147.94 56.1253C149.958 56.1253 151.975 55.7506 153.866 55.0011C155.883 54.2517 157.648 53.0026 159.287 51.5037C160.926 49.8798 162.313 48.0062 163.574 45.633C164.708 43.2597 165.591 40.5117 165.969 37.2641C166.347 34.5161 166.221 31.893 165.717 29.6446C165.213 27.3963 164.33 25.5226 163.196 23.8988C162.061 22.3999 160.548 21.1508 158.909 20.4014C157.27 19.527 155.379 19.1523 153.488 19.1523C150.84 19.0274 148.571 19.527 146.427 20.4014Z" fill="url(#paint3_linear)"/>
<path d="M185.889 47.257C185.007 46.7574 184.376 46.0079 183.872 45.0087C183.368 44.0094 183.116 42.8852 182.99 41.6361C182.863 40.3871 182.863 38.8881 183.116 37.3892C183.242 36.1402 183.62 34.7662 183.998 33.5171C184.376 32.268 185.007 31.1438 185.763 30.0196C186.52 29.0204 187.402 28.146 188.411 27.6464C189.419 27.0218 190.554 26.772 191.941 26.772C193.202 26.772 194.21 27.0218 195.093 27.6464C195.975 28.2709 196.48 29.0204 196.984 30.0196C197.362 31.0189 197.74 32.1431 197.74 33.3922C197.867 34.6412 197.867 35.8903 197.614 37.2643C197.236 40.512 196.228 43.0101 194.715 45.0087C193.202 47.0072 191.311 47.8816 189.167 47.8816H189.041C187.654 48.1314 186.646 47.8816 185.889 47.257ZM185.133 20.2767C182.611 21.1511 180.468 22.4002 178.577 24.024C176.686 25.6478 175.173 27.6464 173.912 29.8947C172.651 32.268 171.895 34.7662 171.517 37.6391C171.138 40.512 171.264 43.0101 171.895 45.2585C172.525 47.5069 173.66 49.5054 175.047 51.0043C176.56 52.6281 178.325 53.7523 180.468 54.6267C182.611 55.501 185.007 55.8757 187.654 55.8757C190.05 55.8757 192.445 55.501 194.715 54.7516C197.11 54.0021 199.253 52.8779 201.145 51.2541C203.162 49.7552 204.801 47.7567 206.188 45.3834C207.574 43.0101 208.457 40.2621 208.961 37.0145C209.339 34.3914 209.213 31.8933 208.583 29.6449C207.953 27.3965 207.07 25.5229 205.683 23.8991C204.296 22.2753 202.531 21.0262 200.388 20.1518C198.245 19.2775 195.849 18.7778 193.076 18.7778C190.302 19.0276 187.654 19.4024 185.133 20.2767Z" fill="url(#paint4_linear)"/>
<path d="M235.059 60.4974C233.546 60.4974 232.159 59.8729 231.403 58.7487C230.899 57.9993 230.268 56.8751 230.52 55.1264L230.899 52.5033C229.007 52.1286 227.116 51.6289 225.351 50.8795C222.704 49.7553 220.308 48.2564 218.291 46.2578C216.274 44.2593 214.887 41.7611 213.878 38.8882C212.87 36.0153 212.617 32.7677 213.122 29.1453C213.626 25.2732 214.761 22.0255 216.652 19.1526C218.417 16.4046 220.56 14.1563 223.082 12.2827C225.477 10.5339 228.125 9.15993 231.025 8.16066C233.042 7.53612 235.059 7.03648 236.95 6.66176L237.202 4.78813C237.328 3.53904 237.959 2.41486 238.841 1.5405C239.85 0.666139 241.111 0.166504 242.498 0.166504H248.801C250.314 0.166504 251.701 0.791047 252.458 1.91523C252.962 2.66468 253.592 3.78886 253.34 5.53758L253.214 6.78667C254.853 7.03649 256.492 7.53612 258.131 8.16066C260.779 9.15993 263.174 10.5339 265.191 12.4076C267.335 14.2812 268.974 16.7794 269.982 19.5274C271.117 22.4003 271.369 25.7728 270.865 29.645C270.36 33.1424 269.352 36.39 267.587 39.138C265.948 41.886 263.931 44.2593 261.409 46.1329C259.014 48.0066 256.366 49.5055 253.466 50.6297C251.323 51.3791 249.18 52.0037 246.91 52.2535L246.532 55.3762C246.406 56.6253 245.776 57.7494 244.893 58.6238C243.884 59.4982 242.624 59.9978 241.237 59.9978H235.059V60.4974ZM235.185 20.6515C234.555 21.0263 233.924 21.401 233.42 21.9006C232.538 22.6501 231.781 23.6494 231.151 24.8984C230.52 26.1475 230.016 27.7713 229.764 29.645C229.512 31.2688 229.638 32.7677 229.89 34.0168C230.142 35.2659 230.646 36.39 231.277 37.1395C231.781 37.764 232.285 38.3886 232.79 38.7633L235.185 20.6515ZM248.675 38.5135C249.306 38.1388 249.936 37.6391 250.44 37.0146C251.323 36.1402 252.205 34.8911 252.836 33.6421C253.466 32.393 253.97 30.7691 254.223 29.1453C254.475 27.2717 254.475 25.7728 254.097 24.5237C253.718 23.3995 253.34 22.4003 252.71 21.7757C252.205 21.1512 251.575 20.7765 250.945 20.4017L248.675 38.5135Z" fill="white"/>
<path d="M231.781 41.5114C230.772 40.8868 229.764 40.0125 229.007 38.8883C228.251 37.7641 227.621 36.3901 227.242 34.7663C226.864 33.1425 226.738 31.3938 226.99 29.3952C227.242 27.1469 227.873 25.2732 228.629 23.7743C229.512 22.2754 230.394 21.0263 231.529 20.0271C232.664 19.0278 233.798 18.2783 234.933 17.7787C236.194 17.2791 237.328 16.9043 238.463 16.7794L235.059 42.7604C233.924 42.5106 232.79 42.1359 231.781 41.5114ZM248.801 16.7794C249.81 16.9043 250.945 17.2791 252.079 17.7787C253.214 18.2783 254.097 19.0278 254.979 20.0271C255.862 21.0263 256.492 22.2754 256.87 23.7743C257.248 25.2732 257.375 27.1469 257.122 29.3952C256.87 31.3938 256.366 33.2674 255.483 34.7663C254.601 36.3901 253.718 37.7641 252.584 38.8883C251.449 40.0125 250.314 40.8868 249.054 41.5114C247.793 42.1359 246.658 42.5106 245.523 42.6355L248.801 16.7794ZM242.245 2.91455C241.615 2.91455 240.985 3.16437 240.606 3.53909C240.102 3.91382 239.85 4.53837 239.85 5.16291L239.346 9.15999C236.95 9.40981 234.429 9.90944 231.907 10.7838C229.386 11.6582 226.99 12.9073 224.721 14.5311C222.451 16.1549 220.56 18.1534 219.047 20.6516C217.408 23.1498 216.4 26.0227 216.022 29.5201C215.643 32.6428 215.769 35.5157 216.652 38.0139C217.534 40.5121 218.795 42.6355 220.434 44.3843C222.073 46.133 224.216 47.507 226.486 48.3813C228.881 49.3806 231.403 49.8802 234.05 50.1301L233.294 55.3762C233.168 56.0008 233.294 56.6253 233.672 57C234.05 57.3748 234.555 57.6246 235.185 57.6246H241.489C242.119 57.6246 242.75 57.3748 243.128 57C243.632 56.6253 243.884 56.0008 243.884 55.3762L244.641 50.1301C247.415 49.8802 250.062 49.3806 252.584 48.3813C255.231 47.3821 257.627 46.0081 259.77 44.3843C261.913 42.6355 263.804 40.5121 265.317 38.0139C266.83 35.5157 267.839 32.6428 268.217 29.5201C268.721 26.1476 268.469 23.1498 267.461 20.6516C266.452 18.1534 265.191 16.1549 263.3 14.5311C261.535 12.9073 259.392 11.6582 257.122 10.7838C254.727 9.90944 252.458 9.40981 250.062 9.15999L250.566 5.16291C250.693 4.53837 250.566 3.91382 250.188 3.53909C249.81 3.16437 249.306 2.91455 248.675 2.91455H242.245Z" fill="url(#paint5_linear)"/>
<path d="M267.713 58.7485C267.461 58.7485 267.082 58.7485 266.704 58.7485C265.948 58.6236 265.317 58.4987 264.687 58.124C264.057 57.7492 263.552 57.2496 263.174 56.6251C262.796 55.8756 262.544 55.1262 262.544 54.1269L262.796 50.2547C262.796 49.88 262.796 49.5053 262.922 49.1305V48.7558C263.174 46.8822 264.057 46.0078 264.813 45.5082C265.443 45.1335 266.074 45.0086 266.704 45.0086C267.587 45.0086 268.217 44.8836 268.721 44.6338C269.226 44.384 269.604 44.0093 269.982 43.3847C270.487 42.6353 270.991 41.5111 271.369 40.0122C271.747 38.3884 272.252 36.2649 272.756 33.7668L275.025 21.7755C275.277 20.5264 275.782 19.5272 276.538 18.7777C277.421 17.7784 278.681 17.2788 280.194 17.2788H303.392C304.905 17.2788 306.292 17.9034 307.049 19.0275C307.553 19.777 308.183 20.9012 307.931 22.6499L303.897 53.3774C303.771 54.6265 303.14 55.7507 302.258 56.6251C301.249 57.6243 299.988 57.9991 298.602 57.9991H291.92C290.407 57.9991 289.02 57.3745 288.263 56.2503C287.759 55.6258 287.129 54.3767 287.381 52.628L290.281 31.0188H288.515L287.381 36.7646C286.624 40.6367 285.868 43.8844 285.111 46.5075C284.229 49.3804 283.094 51.7536 281.581 53.5023C280.068 55.5009 278.051 56.8749 275.656 57.7492C273.512 58.3738 270.865 58.7485 267.713 58.7485Z" fill="white"/>
<path d="M280.194 19.7772C279.564 19.7772 278.934 20.027 278.555 20.4017C278.177 20.7764 277.799 21.401 277.673 22.0255L275.403 34.0168C274.899 36.6398 274.395 38.7633 274.017 40.3871C273.512 42.1358 273.008 43.5098 272.378 44.5091C271.747 45.5084 270.991 46.2578 270.108 46.7575C269.226 47.2571 268.091 47.382 266.83 47.382C266.704 47.382 266.452 47.5069 266.2 47.6318C265.948 47.7567 265.822 48.1315 265.696 48.756C265.696 48.756 265.696 49.0058 265.57 49.2556C265.57 49.5055 265.57 49.7553 265.57 50.2549L265.317 54.0022C265.317 54.3769 265.443 54.7516 265.57 55.0014C265.696 55.2513 265.948 55.5011 266.2 55.626C266.452 55.7509 266.704 55.8758 266.956 55.8758C267.209 55.8758 267.461 55.8758 267.713 55.8758C270.487 55.8758 272.882 55.5011 274.773 54.8765C276.664 54.252 278.177 53.1278 279.438 51.504C280.699 49.8802 281.707 47.8816 282.464 45.3835C283.22 42.8853 283.977 39.6377 284.733 35.8904L286.246 27.8962H293.432L290.154 52.6282C290.028 53.2527 290.154 53.8773 290.533 54.252C290.911 54.6267 291.415 54.8765 292.046 54.8765H298.728C299.358 54.8765 299.988 54.6267 300.367 54.252C300.871 53.8773 301.123 53.2527 301.123 52.6282L305.157 21.7757C305.284 21.1512 305.157 20.5266 304.779 20.1519C304.401 19.7772 303.897 19.5273 303.266 19.5273H280.194V19.7772Z" fill="url(#paint6_linear)"/>
<path d="M327.473 58.6238C320.539 58.6238 315.37 56.6252 311.966 52.878C308.562 49.0058 307.175 43.8845 308.057 37.5142C308.435 35.016 309.066 32.5178 310.201 30.0197C311.335 27.5215 312.974 25.1482 314.865 23.1497C316.757 21.1511 319.152 19.5273 321.926 18.1533C324.699 16.9042 327.851 16.1548 331.381 16.1548C334.659 16.1548 337.559 16.7793 339.828 17.9035C342.224 19.1526 343.989 20.7764 345.25 23.0248C346.511 25.0233 347.267 27.5215 347.645 30.1446C347.897 32.7676 347.897 35.5156 347.519 38.5134C347.141 41.7611 344.998 43.6347 341.846 43.6347H324.951C324.951 43.6347 325.078 43.6347 325.078 43.7596C325.708 44.1343 326.338 44.3842 327.221 44.634C328.103 44.8838 329.112 45.0087 330.247 45.0087C331.507 45.0087 332.768 44.8838 333.903 44.7589C335.038 44.634 336.172 44.5091 337.181 44.2593L337.811 44.1343C338.316 44.0094 338.82 43.8845 339.324 43.8845C340.207 43.8845 341.089 44.1343 341.72 44.634C342.35 45.0087 342.98 45.8831 343.233 47.2571L343.485 51.379V51.6289C343.485 52.1285 343.485 52.5032 343.485 52.6281C343.233 54.3769 342.35 55.3761 341.594 56.0007C340.963 56.5003 340.333 56.7501 339.828 56.875C335.794 58.1241 331.76 58.6238 327.473 58.6238ZM332.138 30.7691C332.138 30.5193 332.012 30.3944 331.886 30.1446C331.76 29.7698 331.507 29.52 331.129 29.2702C331.003 29.1453 330.625 29.0204 329.742 29.0204C328.986 29.0204 328.356 29.1453 327.851 29.3951C327.221 29.7698 326.717 30.1446 326.212 30.6442L326.086 30.7691H332.138Z" fill="white"/>
<path d="M322.682 31.1435C323.06 30.2691 323.565 29.5197 324.321 28.7702C324.951 28.0208 325.708 27.5211 326.717 27.0215C327.599 26.5219 328.734 26.2721 329.868 26.2721C331.129 26.2721 332.138 26.5219 332.894 27.0215C333.651 27.5211 334.155 28.1457 334.533 28.8951C334.912 29.6446 335.164 30.394 335.164 31.2684C335.164 32.1428 335.164 32.8922 335.164 33.5168H322.052C321.926 32.7673 322.304 32.0179 322.682 31.1435ZM323.06 20.6512C320.665 21.7753 318.522 23.2742 316.883 25.023C315.118 26.7717 313.731 28.8951 312.722 31.1435C311.714 33.3919 311.083 35.6402 310.705 37.8886C309.948 43.3846 311.083 47.8813 313.983 51.1289C316.883 54.3765 321.295 56.0004 327.473 56.0004C331.507 56.0004 335.29 55.5007 338.694 54.5014C338.946 54.3765 339.324 54.2516 339.828 53.8769C340.207 53.6271 340.459 53.1274 340.585 52.378C340.585 52.2531 340.585 52.1282 340.585 51.8784C340.585 51.6285 340.585 51.5036 340.585 51.3787L340.333 47.7564C340.333 47.3816 340.207 47.1318 339.955 46.882C339.702 46.7571 339.45 46.6322 339.198 46.6322C338.946 46.6322 338.694 46.6322 338.442 46.7571C338.189 46.882 337.937 46.882 337.685 46.882C336.55 47.1318 335.29 47.2567 334.155 47.5065C332.894 47.6315 331.634 47.7564 330.247 47.7564C328.986 47.7564 327.725 47.6315 326.59 47.3816C325.456 47.1318 324.447 46.7571 323.565 46.1326C322.682 45.6329 322.052 44.8835 321.674 44.0091C321.169 43.1347 321.043 42.1355 321.043 41.0113H341.846C343.611 41.0113 344.493 40.1369 344.745 38.2633C345.124 35.5153 345.124 33.0171 344.872 30.6439C344.619 28.2706 343.989 26.2721 342.854 24.5233C341.846 22.7746 340.333 21.4006 338.442 20.5263C336.551 19.527 334.155 19.0273 331.255 19.0273C328.229 19.0273 325.456 19.527 323.06 20.6512Z" fill="url(#paint7_linear)"/>
<path d="M373.743 57.8745C372.104 57.8745 370.969 57.4997 370.087 56.7503C369.456 56.2507 368.952 55.6261 368.322 54.7517L368.196 54.6268L364.666 47.6319L363.909 53.2528C363.783 54.5019 363.153 55.6261 362.27 56.5005C361.261 57.3748 360.001 57.8745 358.614 57.8745H351.932C350.419 57.8745 349.032 57.2499 348.276 56.1257C347.771 55.5012 347.141 54.2521 347.393 52.5034L351.427 21.6509C351.554 20.4018 352.184 19.2777 353.066 18.4033C353.949 17.5289 355.21 17.0293 356.723 17.0293H363.405C364.918 17.0293 366.305 17.6538 367.061 18.778C367.565 19.4026 368.196 20.6517 367.944 22.4004L367.565 25.1484L371.474 20.0271C372.23 19.0278 372.987 18.4033 373.743 17.9037C374.626 17.404 375.76 17.0293 377.273 17.0293H385.216C386.225 17.0293 387.107 17.2791 387.864 17.7788C388.998 18.5282 389.629 19.9022 389.377 21.2762C389.377 21.526 389.25 21.9007 389.124 22.4004C388.872 23.0249 388.494 23.6495 387.99 24.274L377.273 36.5151L386.729 51.3792C387.107 52.0037 387.359 52.6283 387.485 53.3777C387.485 53.8774 387.485 54.2521 387.485 54.5019C387.359 55.751 386.603 56.7503 385.468 57.3748C384.712 57.7496 383.829 57.9994 382.821 57.9994H373.743V57.8745Z" fill="white"/>
<path d="M377.399 19.7773C376.517 19.7773 375.76 19.9023 375.256 20.1521C374.752 20.4019 374.247 20.9015 373.743 21.651L363.783 34.7664H363.657L365.296 22.1506C365.422 21.5261 365.296 20.9015 364.918 20.5268C364.54 20.1521 364.035 19.9023 363.405 19.9023H356.723C356.092 19.9023 355.462 20.1521 355.084 20.5268C354.579 20.9015 354.327 21.5261 354.327 22.1506L350.293 53.0031C350.167 53.6276 350.293 54.2522 350.671 54.6269C351.049 55.0016 351.554 55.2514 352.184 55.2514H358.866C359.496 55.2514 360.127 55.0016 360.505 54.6269C361.009 54.2522 361.262 53.6276 361.262 53.0031L363.153 38.8884H363.405L370.717 53.3778C371.222 54.0023 371.6 54.502 371.978 54.8767C372.356 55.1265 372.987 55.2514 373.869 55.2514H383.073C383.577 55.2514 383.955 55.1265 384.333 55.0016C384.712 54.7518 384.838 54.502 384.964 54.1273C384.964 54.0024 384.964 53.7525 384.964 53.5027C384.964 53.2529 384.838 53.0031 384.586 52.7533L373.995 36.2653L386.225 22.4004C386.477 22.1506 386.729 21.9008 386.729 21.651C386.855 21.4012 386.855 21.2762 386.855 21.0264C386.855 20.6517 386.729 20.4019 386.477 20.1521C386.225 19.9023 385.846 19.9023 385.342 19.9023H377.399V19.7773Z" fill="url(#paint8_linear)"/>
<path d="M407.531 58.6239C404.38 58.6239 401.48 58.1242 398.958 57.1249C396.311 56.1257 394.167 54.6268 392.402 52.7531C390.637 50.8795 389.377 48.5062 388.746 45.8832C388.116 43.2601 387.99 40.3872 388.368 37.3894C388.746 34.5165 389.629 31.7685 390.889 29.2703C392.276 26.6472 394.041 24.3989 396.185 22.5252C398.454 20.6516 400.976 19.0278 404.001 17.9036C407.027 16.7794 410.305 16.2798 413.961 16.2798C415.096 16.2798 416.357 16.4047 417.492 16.5296C418.752 16.6545 419.887 16.9043 420.896 17.1541C421.652 17.404 422.156 17.6538 422.787 18.1534C423.669 18.778 424.552 19.9021 424.174 22.2754C424.174 22.6501 424.048 23.1498 423.795 23.8992L422.535 27.8963C422.03 29.3952 421.148 30.0197 420.517 30.3945C419.887 30.7692 419.131 30.8941 418.374 30.8941C417.87 30.8941 417.492 30.8941 417.113 30.7692L416.483 30.6443C415.726 30.5194 414.592 30.3945 413.457 30.3945C412.322 30.3945 411.314 30.5194 410.431 30.8941C409.549 31.2688 408.666 31.7685 407.91 32.393C407.153 33.0176 406.649 33.767 406.145 34.6414C405.64 35.6406 405.388 36.6399 405.262 37.7641C405.136 39.0132 405.136 40.1374 405.388 41.0117C405.64 41.8861 406.019 42.5106 406.523 43.0103C407.027 43.5099 407.532 43.8846 408.288 44.1344C409.17 44.3843 410.053 44.6341 411.062 44.6341C411.692 44.6341 412.196 44.6341 412.701 44.5092L414.592 44.2593L415.348 44.1344C415.853 44.0095 416.231 44.0095 416.609 44.0095C418.626 44.0095 420.139 45.3835 420.391 47.507L420.643 51.629C420.643 51.8788 420.643 52.2535 420.643 52.5033C420.643 52.8781 420.643 53.1279 420.643 53.2528C420.391 55.0015 419.509 56.0008 418.752 56.5004C418.122 57 417.618 57.2499 417.113 57.4997C414.087 58.2491 411.062 58.6239 407.531 58.6239Z" fill="white"/>
<path d="M404.884 20.5267C402.236 21.5259 399.841 22.8999 397.95 24.5237C395.933 26.2725 394.42 28.271 393.285 30.5194C392.15 32.7677 391.394 35.2659 391.016 37.7641C390.637 40.5121 390.763 43.0102 391.394 45.2586C392.024 47.5069 393.033 49.3806 394.42 51.0044C395.806 52.6282 397.698 53.7524 399.967 54.6267C402.236 55.5011 404.758 55.8758 407.658 55.8758C410.936 55.8758 413.709 55.5011 416.105 54.8766C416.357 54.7517 416.735 54.6267 417.113 54.252C417.492 53.8773 417.744 53.5026 417.87 52.878C417.87 52.7531 417.87 52.6282 417.87 52.3784C417.87 52.1286 417.87 51.8788 417.87 51.7538L417.618 47.7568C417.618 47.1322 417.239 46.7575 416.609 46.7575C416.357 46.7575 416.105 46.7575 415.853 46.8824C415.6 46.8824 415.222 47.0073 414.97 47.0073C414.34 47.1322 413.709 47.2571 413.079 47.2571C412.449 47.382 411.692 47.382 411.062 47.382C409.675 47.382 408.414 47.1322 407.279 46.7575C406.145 46.3828 405.136 45.7582 404.38 44.8839C403.623 44.0095 403.119 43.0102 402.741 41.7611C402.362 40.5121 402.362 39.1381 402.488 37.3893C402.741 35.8904 403.119 34.6413 403.623 33.3923C404.254 32.1432 405.01 31.1439 406.019 30.2695C407.027 29.3952 408.036 28.7706 409.297 28.271C410.557 27.7714 411.818 27.5215 413.331 27.5215C414.718 27.5215 415.979 27.6464 417.113 27.8963C417.239 27.8963 417.492 28.0212 417.744 28.0212C417.996 28.0212 418.122 28.1461 418.374 28.1461C418.752 28.1461 419.004 28.0212 419.257 27.8963C419.509 27.7714 419.761 27.5215 419.887 27.0219L421.148 23.0248C421.274 22.5252 421.4 22.1505 421.4 21.9006C421.526 21.0263 421.4 20.5267 421.022 20.2768C420.643 20.027 420.391 19.9021 420.139 19.7772C419.257 19.5274 418.122 19.4025 417.113 19.2776C415.979 19.1527 414.97 19.1527 413.835 19.1527C410.557 19.0277 407.532 19.5274 404.884 20.5267Z" fill="url(#paint9_linear)"/>
<defs>
<linearGradient id="paint0_linear" x1="22.0503" y1="72.5325" x2="22.0503" y2="20.3352" gradientUnits="userSpaceOnUse">
<stop stop-color="#36A9E1"/>
<stop offset="1" stop-color="white"/>
</linearGradient>
<linearGradient id="paint1_linear" x1="66.877" y1="72.5324" x2="66.877" y2="20.3351" gradientUnits="userSpaceOnUse">
<stop stop-color="#36A9E1"/>
<stop offset="1" stop-color="white"/>
</linearGradient>
<linearGradient id="paint2_linear" x1="108.724" y1="72.5329" x2="108.724" y2="20.3357" gradientUnits="userSpaceOnUse">
<stop stop-color="#36A9E1"/>
<stop offset="1" stop-color="white"/>
</linearGradient>
<linearGradient id="paint3_linear" x1="145.551" y1="72.5324" x2="145.551" y2="20.3352" gradientUnits="userSpaceOnUse">
<stop stop-color="#36A9E1"/>
<stop offset="1" stop-color="white"/>
</linearGradient>
<linearGradient id="paint4_linear" x1="190.237" y1="72.5327" x2="190.237" y2="20.3354" gradientUnits="userSpaceOnUse">
<stop stop-color="#36A9E1"/>
<stop offset="1" stop-color="white"/>
</linearGradient>
<linearGradient id="paint5_linear" x1="241.961" y1="59.3381" x2="241.961" y2="2.45826" gradientUnits="userSpaceOnUse">
<stop stop-color="#36A9E1"/>
<stop offset="1" stop-color="#1D71B8"/>
</linearGradient>
<linearGradient id="paint6_linear" x1="285.33" y1="59.338" x2="285.33" y2="2.45819" gradientUnits="userSpaceOnUse">
<stop stop-color="#36A9E1"/>
<stop offset="1" stop-color="#1D71B8"/>
</linearGradient>
<linearGradient id="paint7_linear" x1="327.737" y1="59.3377" x2="327.737" y2="2.45782" gradientUnits="userSpaceOnUse">
<stop stop-color="#36A9E1"/>
<stop offset="1" stop-color="#1D71B8"/>
</linearGradient>
<linearGradient id="paint8_linear" x1="368.455" y1="59.3382" x2="368.455" y2="2.45837" gradientUnits="userSpaceOnUse">
<stop stop-color="#36A9E1"/>
<stop offset="1" stop-color="#1D71B8"/>
</linearGradient>
<linearGradient id="paint9_linear" x1="406.127" y1="59.3381" x2="406.127" y2="2.45822" gradientUnits="userSpaceOnUse">
<stop stop-color="#36A9E1"/>
<stop offset="1" stop-color="#1D71B8"/>
</linearGradient>
</defs>
</svg>
