<svg width="86" height="44" viewBox="0 0 86 44" fill="none" xmlns="http://www.w3.org/2000/svg">
<path d="M31.232 39.4559V43.3599H1.281V40.2489L19.032 22.8639C21.2687 20.6679 22.7733 18.7769 23.546 17.1909C24.3593 15.5643 24.766 13.9376 24.766 12.3109C24.766 9.78961 23.8917 7.83761 22.143 6.45495C20.435 5.03161 17.9747 4.31994 14.762 4.31994C9.76 4.31994 5.87633 5.90595 3.111 9.07795L0 6.39395C1.66733 4.44195 3.782 2.93728 6.344 1.87995C8.94667 0.822613 11.8747 0.293945 15.128 0.293945C19.4793 0.293945 22.9157 1.33095 25.437 3.40495C27.999 5.43828 29.28 8.24428 29.28 11.8229C29.28 14.0189 28.792 16.1336 27.816 18.1669C26.84 20.2003 24.9897 22.5386 22.265 25.1819L7.747 39.4559H31.232Z" fill="#7d4d27"/>
<path d="M60.1679 26.7679C64.5193 27.7846 66.6949 30.4076 66.6949 34.6369C66.6949 37.4429 65.6579 39.5983 63.5839 41.1029C61.5099 42.6076 58.4193 43.3599 54.3119 43.3599H39.7329V11.2739H53.8849C57.5449 11.2739 60.4119 11.9856 62.4859 13.4089C64.5599 14.8323 65.5969 16.8656 65.5969 19.5089C65.5969 21.2576 65.1089 22.7623 64.1329 24.0229C63.1976 25.2429 61.8759 26.1579 60.1679 26.7679ZM43.9419 25.5479H53.5799C56.0606 25.5479 57.9516 25.0803 59.2529 24.1449C60.5949 23.2096 61.2659 21.8473 61.2659 20.0579C61.2659 18.2686 60.5949 16.9266 59.2529 16.0319C57.9516 15.1373 56.0606 14.6899 53.5799 14.6899H43.9419V25.5479ZM54.1289 39.9439C56.8943 39.9439 58.9683 39.4966 60.3509 38.6019C61.7336 37.7073 62.4249 36.3043 62.4249 34.3929C62.4249 32.4816 61.7946 31.0786 60.5339 30.1839C59.2733 29.2486 57.2806 28.7809 54.5559 28.7809H43.9419V39.9439H54.1289Z" fill="#7d4d27"/>
<path d="M85.6902 0.659945V43.3599H81.2982V4.56395H71.2332V0.659945H85.6902Z" fill="#7d4d27"/>
</svg>
