<svg width="94" height="98" viewBox="0 0 94 98" fill="none" xmlns="http://www.w3.org/2000/svg">
<path d="M3.48533 3.29968L11.9559 15.0573C11.9559 15.2302 11.7794 15.2302 11.7794 15.4031L7.36768 22.838C6.83827 23.7025 7.19121 24.74 8.07356 25.2587C8.95591 25.7774 10.0147 25.4316 10.3677 24.5671L14.7794 16.9592C15.1324 16.4405 15.6618 16.0947 16.3677 16.0947H21.4853C22.5441 16.0947 23.25 15.4031 23.25 14.3656C23.25 13.3282 22.5441 12.6366 21.4853 12.6366H16.3677C15.8383 12.6366 15.3089 12.6366 14.7794 12.8095L6.30886 1.22482C5.77944 0.360288 4.72062 0.187383 3.83827 0.533194C3.13239 1.05191 2.77945 2.08934 3.30886 2.95387C3.30886 3.12678 3.48533 3.12678 3.48533 3.29968Z" fill="#7d4d27"/>
<path d="M44.7794 67.2749C45.6618 66.7562 45.8382 65.7188 45.4853 64.8542L42.8382 60.0129C42.4853 59.4942 42.4853 58.8025 42.8382 58.2838L53.7794 39.2642C54.1324 38.7455 54.6618 38.3997 55.3677 38.3997H61.5441C62.6029 38.3997 63.3088 37.7081 63.3088 36.6706C63.3088 35.6332 62.6029 34.9416 61.5441 34.9416H55.3677C55.0147 34.9416 54.6618 34.9416 54.3088 35.1145C54.1324 34.7687 54.1324 34.4229 53.9559 34.0771L43.0147 15.0574C42.1324 13.5013 40.3677 12.4639 38.4265 12.4639H28.3677C27.3088 12.4639 26.6029 13.1555 26.6029 14.1929C26.6029 15.2304 27.3088 15.922 28.3677 15.922H38.25C38.9559 15.922 39.4853 16.2678 39.8382 16.7865L50.7794 35.8061C51.1324 36.3248 51.1324 37.0164 50.7794 37.5352L39.8382 56.5548C39.4853 57.0735 38.9559 57.4193 38.25 57.4193H16.3676C15.6618 57.4193 15.1324 57.0735 14.7794 56.5548L3.83824 37.5352C3.48529 37.0164 3.48529 36.3248 3.83824 35.8061L7.72059 29.0628C8.25 28.1983 7.89706 27.1608 7.01471 26.6421C6.13235 26.1234 5.07353 26.4692 4.54412 27.3337L0.661765 34.0771C-0.220588 35.6332 -0.220588 37.5352 0.661765 39.0913L11.6029 58.1109C11.6029 58.2838 11.7794 58.2838 11.7794 58.4567L1.36765 73.6724C1.01471 74.1911 1.01471 74.7099 1.19118 75.2286L6.48529 90.7901C7.01471 91.8275 8.07353 92.3462 8.95588 92.0004C9.83824 91.6546 10.3676 90.7901 10.0147 89.7526L4.89706 75.0557L14.6029 60.7045C15.1324 60.8774 15.6618 60.8774 16.1912 60.8774H37.8971C38.25 60.8774 38.6029 60.8774 38.9559 60.7045C39.1324 61.0503 39.1324 61.3961 39.3088 61.7419L41.9559 66.5833C42.8382 67.4478 43.8971 67.6207 44.7794 67.2749Z" fill="#7d4d27"/>
<path d="M92.4265 61.9148C93.3088 60.3587 93.3088 58.4567 92.4265 56.7276L81.4853 37.708L92.7794 22.3194C93.3088 21.4549 93.1324 20.4175 92.4265 19.8988C91.5441 19.3801 90.4853 19.553 89.9559 20.2446L78.8383 35.4603C78.3088 35.2874 77.603 35.1145 76.8971 35.1145H68.9559C67.8971 35.1145 67.1912 35.8061 67.1912 36.8435C67.1912 37.8809 67.8971 38.5726 68.9559 38.5726H76.8971C77.603 38.5726 78.1324 38.9184 78.4853 39.4371L89.4265 58.4567C89.7794 58.9754 89.7794 59.667 89.4265 60.1858L78.4853 79.2054C78.1324 79.7241 77.603 80.0699 76.8971 80.0699H55.1912C54.4853 80.0699 53.9559 79.7241 53.603 79.2054L48.1324 69.5227C47.603 68.6581 46.5441 68.4852 45.6618 68.831C44.7794 69.1768 44.603 70.3872 44.9559 71.2517L50.4265 80.9344C50.4265 81.1073 50.603 81.1073 50.7794 81.2802L43.8971 94.9398C43.5441 95.8043 43.8971 96.8417 44.7794 97.1875C45.6618 97.5333 46.5441 97.1875 47.0736 96.4959L53.7794 83.3551C54.3089 83.528 54.6618 83.528 55.1912 83.528H76.8971C77.4265 83.528 77.9559 83.3551 78.4853 83.1822L84.4853 96.323C84.8383 97.1875 85.8971 97.5333 86.7794 97.1875C87.6618 96.8417 88.0147 95.8043 87.6618 94.9398L81.3088 81.1073L81.4853 80.9344L92.4265 61.9148Z" fill="#7d4d27"/>
<path d="M17.4265 20.4173L12.1324 29.0625C11.7794 29.9271 12.1324 30.9645 13.0147 31.3103C13.7206 31.6561 14.603 31.3103 15.1324 30.7916L19.8971 23.0108H29.4265C30.4853 23.0108 31.1912 22.3192 31.1912 21.2818C31.1912 20.2444 30.4853 19.5527 29.4265 19.5527H18.8383C18.4853 19.5527 17.7794 19.8985 17.4265 20.4173Z" fill="#7d4d27"/>
<path d="M56.25 42.8953L50.9559 51.5406C50.603 52.4051 50.9559 53.4425 51.8383 53.7883C52.5442 54.1341 53.4265 53.7883 53.9559 53.2696L58.7206 45.4889H68.25C69.3089 45.4889 70.0147 44.7972 70.0147 43.7598C70.0147 42.7224 69.3089 42.0308 68.25 42.0308H57.6618C57.3089 42.0308 56.603 42.3766 56.25 42.8953Z" fill="#7d4d27"/>
</svg>
