<svg width="91" height="90" viewBox="0 0 91 90" fill="none" xmlns="http://www.w3.org/2000/svg">
<g clip-path="url(#clip0_203:542)">
<path d="M47 14.3594C48.1 14.3594 49 15.2594 49 16.3594V44.3594C49 45.4594 48.1 46.3594 47 46.3594H21C19.9 46.3594 19 45.4594 19 44.3594C19 43.2594 19.9 42.3594 21 42.3594H45V16.3594C45 15.2594 45.9 14.3594 47 14.3594Z" fill="#7d4d27"/>
<path fill-rule="evenodd" clip-rule="evenodd" d="M-0.0999756 24.5589C-0.0999756 24.3589 2.43187e-05 24.0589 2.43187e-05 23.7589C0.200024 22.1589 0.900024 20.6589 1.90002 19.4589C2.30002 18.9589 2.80002 18.5589 3.20002 18.0589C3.60002 17.6589 4.00002 17.2589 4.40002 16.8589C4.70002 16.5589 5.00002 16.2589 5.30002 15.9589C5.60002 15.6589 5.90002 15.3589 6.20002 15.0589C6.50002 14.7589 6.80002 14.4589 7.10002 14.1589C7.30002 13.9589 7.40002 13.8589 7.60002 13.6589C7.70002 13.4589 7.90002 13.3589 8.00002 13.1589C8.40002 12.7589 8.80002 12.3589 9.20002 11.9589C9.60002 11.5589 10 11.1589 10.4 10.7589C10.7 10.4589 11 10.1589 11.3 9.85889C11.6 9.55889 11.9 9.25889 12.1 8.95889C12.4 8.65889 12.7 8.35889 13 8.05889C13.3 7.75889 13.6 7.45889 13.9 7.15889C14.2 6.85889 14.5 6.55889 14.8 6.25889C15.2 5.85889 15.5 5.55889 15.9 5.15889C16.8 4.25889 17.9 3.55889 19.1 3.15889C21.7 2.25889 24.3 2.45889 26.7 3.85889C28.9 5.25889 30.3 7.25889 30.8 9.85889C31.2 12.1589 30.7 14.3589 29.4 16.2589C29 16.8589 28.5 17.4589 27.9 17.9589C27.6 18.2589 27.3 18.5589 27 18.8589C26.5 19.3589 26 19.8589 25.5 20.3589C25 20.8589 24.5 21.3589 24 21.8589C23.5 22.3589 22.9 22.9589 22.4 23.4589C21.7 24.1589 21.1 24.7589 20.4 25.4589C19.8 26.0589 19.1 26.7589 18.5 27.3589C17.7 28.1589 16.9 28.9589 16.1 29.7589C15.8 30.0589 15.5 30.3589 15.2 30.6589C14.7 31.1589 14.1 31.6589 13.6 32.0589C12.8 32.6589 11.9 33.0589 10.9 33.3589C9.20002 33.8589 7.50002 33.8589 5.80002 33.2589C2.60002 32.1589 0.700024 29.8589 2.43187e-05 26.5589C2.43187e-05 26.1589 2.44156e-05 25.8589 -0.0999756 25.5589C-0.0999756 25.4589 -0.0999756 25.4589 -0.0999756 25.3589C-0.0999756 25.1589 -0.0999756 24.8589 -0.0999756 24.5589ZM20.7 22.4589C20.8 22.3589 20.9 22.2589 21 22.1589C21.7 21.4589 22.3 20.8589 23 20.1589C23.7 19.4589 24.3 18.8589 25 18.1589C25.4 17.7589 25.8 17.3589 26.2 16.9589C26.5 16.6589 26.7 16.4589 27 16.1589C27.3 15.7589 27.6 15.2589 27.9 14.8589C28.8 13.4589 29.1 11.9589 28.8 10.2589C28.5 8.35889 27.6 6.95889 26.1 5.85889C24.6 4.85889 23 4.45889 21.2 4.75889C20 4.95889 19 5.35889 18.1 6.15889C17.7 6.55889 17.2 6.85889 16.8 7.25889C16.4 7.65889 16 7.95889 15.6 8.35889C15.3 8.65889 15 8.95889 14.7 9.25889C14.3 9.65889 13.9 10.0589 13.5 10.4589C13.2 10.7589 12.8 11.1589 12.5 11.4589C12.4 11.5589 12.2 11.7589 12.1 11.8589C11.9 12.0589 11.7 12.2589 11.6 12.4589C11.3 12.7589 11 13.0589 10.7 13.2589C10.4 13.5589 10.1 13.8589 9.80002 14.1589C9.50002 14.4589 9.20002 14.7589 8.90002 15.0589C8.50002 15.4589 8.10002 15.8589 7.70002 16.2589C7.60002 16.3589 7.40002 16.5589 7.30002 16.6589C7.00002 17.0589 6.90002 17.2589 6.70002 17.3589C6.40002 17.6589 6.10002 17.9589 5.80002 18.2589C5.50002 18.5589 5.20002 18.8589 4.90002 19.0589C4.50002 19.5589 4.00002 20.0589 3.60002 20.5589C2.30002 22.0589 1.80002 23.8589 2.00002 25.7589C2.20002 27.6589 3.20002 29.2589 4.70002 30.3589C6.70002 31.7589 8.90002 31.9589 11.2 31.0589C12.1 30.6589 12.9 30.1589 13.7 29.4589C14 29.1589 14.3 28.8589 14.6 28.5589C15 28.1589 15.4 27.6589 15.9 27.2589C16.5 26.6589 17.1 26.0589 17.8 25.3589C18.4 24.8589 18.9 24.2589 19.4 23.6589C19.5 23.5589 19.6 23.4589 19.7 23.3589C19.6 23.2589 19.5 23.1589 19.4 23.0589C19 22.6589 18.5 22.1589 18.1 21.7589C17.7 21.3589 17.4 21.0589 17 20.6589C16.6 20.2589 16.1 19.7589 15.7 19.3589C15.2 18.8589 14.8 18.4589 14.3 17.9589C14 17.6589 14 17.2589 14.3 16.9589C14.6 16.6589 15 16.6589 15.3 16.9589C15.5 17.1589 15.7 17.3589 15.9 17.5589C16.3 17.9589 16.8 18.4589 17.2 18.8589C17.6 19.2589 17.9 19.5589 18.3 19.9589C18.7 20.3589 19.2 20.8589 19.6 21.2589C20 21.7589 20.3 22.1589 20.7 22.4589Z" fill="#7d4d27"/>
<path fill-rule="evenodd" clip-rule="evenodd" d="M3.30005 24.8594C3.30005 23.3594 3.80005 22.0594 4.80005 21.0594C5.50005 20.3594 6.10005 19.6594 6.80005 19.0594C7.50005 18.3594 8.30005 17.5594 9.00005 16.8594C9.30005 16.5594 9.60005 16.5594 9.90005 16.6594C10.2 16.8594 10.3 17.1594 10.2 17.4594C10.2 17.5594 10.1 17.6594 10 17.7594C9.50005 18.2594 9.00005 18.7594 8.60005 19.1594C8.00005 19.7594 7.40005 20.3594 6.80005 20.9594C6.40005 21.4594 5.90005 21.8594 5.50005 22.3594C4.30005 23.8594 4.40005 26.0594 5.70005 27.4594C6.30005 28.1594 7.10005 28.5594 8.00005 28.7594C8.30005 28.8594 8.60005 29.1594 8.60005 29.4594C8.60005 29.7594 8.30005 30.0594 7.90005 30.0594C7.60005 30.0594 7.40005 29.9594 7.10005 29.9594C4.90005 29.1594 3.70005 27.6594 3.30005 25.4594C3.30005 25.2594 3.30005 25.0594 3.30005 24.8594Z" fill="#7d4d27"/>
<path fill-rule="evenodd" clip-rule="evenodd" d="M59.8 79.9593C59.8 79.6593 59.9001 79.3593 59.9001 79.1593C60.1001 77.5593 60.8001 76.0593 61.8001 74.8593C62.2001 74.3593 62.7 73.9593 63.1 73.4593C63.5 73.0593 63.9001 72.6593 64.3001 72.2593C64.6001 71.9593 64.9 71.6593 65.2 71.3593C65.5 71.0593 65.8 70.7593 66.1 70.4593C66.4 70.1593 66.7 69.8593 67 69.5593C67.2 69.3593 67.3 69.2593 67.5 69.0593C67.6 68.8593 67.8001 68.7593 67.9001 68.5593C68.3001 68.1593 68.7 67.7593 69.1 67.3593C69.5 66.9593 69.9001 66.5593 70.3001 66.1593C70.6001 65.8593 70.9 65.5593 71.2 65.2593C71.5 64.9593 71.8 64.6593 72 64.3593C72.3 64.0593 72.6001 63.7593 72.9001 63.4593C73.2001 63.1593 73.5001 62.8593 73.8001 62.5593C74.1001 62.2593 74.4 61.9593 74.7 61.6593C75.1 61.2593 75.4001 60.9593 75.8001 60.5593C76.7001 59.6593 77.8 58.9593 79 58.5593C81.6 57.6593 84.2 57.8593 86.6 59.2593C88.8 60.6593 90.2 62.6593 90.7 65.2593C91.1 67.5593 90.6001 69.7593 89.3001 71.6593C88.9001 72.2593 88.4001 72.8593 87.8001 73.3593C87.5001 73.6593 87.2001 73.9593 86.9001 74.2593C86.4001 74.7593 85.9001 75.2593 85.4001 75.7593C84.9001 76.2593 84.4001 76.7593 83.9001 77.2593C83.4001 77.7593 82.8001 78.3593 82.3001 78.8593C81.6001 79.5593 81.0001 80.1593 80.3001 80.8593C79.7001 81.4593 79.0001 82.1593 78.4001 82.7593C77.6001 83.5593 76.8 84.3593 76 85.1593C75.7 85.4593 75.4 85.7593 75.1 86.0593C74.6 86.5593 74 87.0593 73.5 87.4593C72.7 88.0593 71.8001 88.4593 70.8001 88.7593C69.1001 89.2593 67.4 89.2593 65.7 88.6593C62.5 87.5593 60.6001 85.2593 59.9001 81.9593C59.8001 81.6593 59.8 81.3593 59.8 81.0593C59.8 80.9593 59.8 80.9593 59.8 80.8593C59.8 80.4593 59.8 80.1593 59.8 79.9593ZM80.6 77.7593C80.7 77.6593 80.8001 77.5593 80.9001 77.4593C81.6001 76.7593 82.2001 76.1593 82.9001 75.4593C83.6001 74.7593 84.2001 74.1593 84.9001 73.4593C85.3001 73.0593 85.7 72.6593 86.1 72.2593C86.4 71.9593 86.6001 71.7593 86.9001 71.4593C87.2001 71.0593 87.5001 70.5593 87.8001 70.1593C88.7001 68.7593 89 67.2593 88.7 65.5593C88.4 63.6593 87.5 62.2593 86 61.1593C84.5 60.1593 82.9 59.7593 81.1 60.0593C80 60.3593 78.9 60.7593 78 61.4593C77.6 61.8593 77.1 62.1593 76.7 62.5593C76.3 62.9593 75.9 63.2593 75.5 63.6593C75.2 63.9593 74.9 64.2593 74.6 64.5593C74.2 64.9593 73.8001 65.3593 73.4001 65.7593C73.1001 66.0593 72.7001 66.4593 72.4001 66.7593C72.3001 66.8593 72.1 67.0593 72 67.1593C71.8 67.3593 71.6 67.5593 71.5 67.7593C71.2 68.0593 70.9 68.3593 70.6 68.5593C70.3 68.8593 70 69.1593 69.7 69.4593C69.4 69.7593 69.1001 70.0593 68.8001 70.3593C68.4001 70.7593 68 71.1593 67.6 71.5593C67.5 71.6593 67.3 71.8593 67.2 71.9593C67 72.1593 66.9 72.2593 66.7 72.4593C66.4 72.7593 66.1001 73.0593 65.8001 73.3593C65.5001 73.6593 65.2001 73.9593 64.9001 74.1593C64.5001 74.6593 64 75.1593 63.6 75.6593C62.3 77.1593 61.8 78.9593 62 80.8593C62.2 82.7593 63.2 84.3593 64.7 85.4593C66.7 86.8593 68.9 87.0593 71.2 86.1593C72.1 85.7593 72.9 85.2593 73.7 84.5593C74 84.2593 74.3 83.9593 74.6 83.6593C75 83.2593 75.4001 82.7593 75.9001 82.3593C76.5001 81.7593 77.1001 81.1593 77.8001 80.4593C78.4001 79.9593 78.9001 79.3593 79.4001 78.7593C79.5001 78.6593 79.6 78.5593 79.7 78.4593C79.6 78.3593 79.5001 78.2593 79.4001 78.1593C79.0001 77.7593 78.5 77.2593 78.1 76.8593C77.7 76.4593 77.4 76.1593 77 75.7593C76.6 75.3593 76.1 74.8593 75.7 74.4593C75.2 73.9593 74.8001 73.5593 74.3001 73.0593C74.0001 72.7593 74.0001 72.3593 74.3001 72.0593C74.6001 71.7593 75.0001 71.7593 75.3001 72.0593C75.5001 72.2593 75.7001 72.4593 75.9001 72.6593C76.3001 73.0593 76.8 73.5593 77.2 73.9593C77.6 74.3593 77.9001 74.6593 78.3001 75.0593C78.7001 75.4593 79.2 75.9593 79.6 76.3593C79.9 77.0593 80.3 77.4593 80.6 77.7593Z" fill="#7d4d27"/>
<path fill-rule="evenodd" clip-rule="evenodd" d="M63.3 80.1592C63.3 78.6592 63.8 77.3592 64.8 76.3592C65.5 75.6592 66.1 74.9592 66.8 74.3592C67.5 73.6592 68.3 72.8592 69 72.1592C69.3 71.8592 69.6 71.8592 69.9 71.9592C70.2 72.1592 70.3 72.4592 70.2 72.7592C70.2 72.8592 70.1 72.9592 70 73.0592C69.5 73.5592 69 74.0592 68.6 74.4592C68 75.0592 67.4 75.6592 66.8 76.2592C66.4 76.7592 65.9 77.1592 65.5 77.6592C64.3 79.1592 64.4 81.3592 65.7 82.7592C66.3 83.4592 67.1 83.8592 68 84.0592C68.3 84.1592 68.6 84.4592 68.6 84.7592C68.6 85.0592 68.3 85.3592 67.9 85.3592C67.6 85.3592 67.4 85.2592 67.1 85.2592C64.9 84.4592 63.7 82.9592 63.3 80.7592C63.3 80.5592 63.3 80.3592 63.3 80.1592Z" fill="#7d4d27"/>
<path d="M47 3.85938C69.3 3.85938 87.5 22.0594 87.5 44.3594C87.5 45.2164 87.449 46.1245 87.3834 47.0107C87.3365 47.6444 87.6791 48.2483 88.2421 48.5427C89.1964 49.0416 90.3315 48.4303 90.4027 47.3559C90.4676 46.3772 90.5 45.3845 90.5 44.3594C90.5 20.3594 71 0.859375 47 0.859375C44.7488 0.859375 42.554 1.0283 40.4154 1.36615C39.3956 1.52726 38.9414 2.70087 39.483 3.57988C39.8095 4.10982 40.4106 4.38528 41.0264 4.2942C42.9862 4.00432 44.9569 3.85938 47 3.85938Z" fill="#7d4d27"/>
<path d="M46.5171 86.3183C24.2175 86.1853 6.12639 67.8771 6.25937 45.5775C6.26448 44.7204 6.32091 43.8127 6.39178 42.9269C6.44245 42.2935 6.10348 41.6876 5.54221 41.3899C4.59096 40.8853 3.45221 41.4898 3.37459 42.5637C3.30389 43.5421 3.26554 44.5345 3.25942 45.5596C3.11631 69.5592 22.4997 89.1751 46.4993 89.3182C48.7504 89.3317 50.9462 89.1758 53.0867 88.8507C54.1075 88.6957 54.5687 87.5248 54.0323 86.6426C53.709 86.1107 53.1095 85.8317 52.4932 85.9191C50.5317 86.1973 48.5602 86.3305 46.5171 86.3183Z" fill="#7d4d27"/>
</g>
<defs>
<clipPath id="clip0_203:542">
<rect width="91" height="89" fill="white" transform="translate(0 0.359375)"/>
</clipPath>
</defs>
</svg>
