<svg width="107" height="101" viewBox="0 0 107 101" fill="none" xmlns="http://www.w3.org/2000/svg">
<g clip-path="url(#clip0_203:564)">
<g clip-path="url(#clip1_203:564)">
<path d="M57.3024 3.16023C55.8121 1.66991 53.3158 1.59201 51.7707 3.13709C50.5615 4.34629 52.3906 6.17532 53.5998 4.96612C54.1372 4.4287 54.8795 4.49925 55.3537 4.97345L95.6601 45.2798C96.2021 45.8218 96.1377 46.5636 95.6675 47.0338L50.2555 92.4458C49.0463 93.6549 50.8753 95.484 52.0845 94.2748L97.4965 48.8628C98.9744 47.3849 99.0314 44.8892 97.4733 43.3311L57.3024 3.16023ZM49.9643 6.70484C49.4901 6.23064 48.6806 6.22725 48.1432 6.76467L2.73119 52.1766C1.25329 53.6546 1.19628 56.1503 2.75435 57.7083L43.0607 98.0147C44.5511 99.505 47.0473 99.5829 48.5924 98.0379C49.8016 96.8287 47.9726 94.9996 46.7634 96.2088C46.226 96.7463 45.4164 96.7429 44.9423 96.2687L4.56813 55.8945C4.02619 55.3526 4.09054 54.6108 4.62796 54.0734L50.0399 8.66144C50.5096 8.05628 50.5734 7.17959 49.9643 6.70484ZM70.2264 28.7136L28.442 70.498C27.2329 71.7072 29.0619 73.5362 30.2711 72.327L72.0555 30.5426C73.2647 29.3334 71.3685 27.5716 70.2264 28.7136ZM59.1196 18.2785L50.08 18.2407C46.8419 18.2272 44.222 20.8471 44.2356 24.0851C44.2491 27.3232 46.8911 29.9651 50.1291 29.9787L59.1687 30.0165C62.4068 30.0301 65.0267 27.4101 65.0131 24.1721C64.999 20.7991 62.2899 18.2243 59.1196 18.2785ZM81.1357 40.2946L72.0961 40.2568C68.858 40.2433 66.2381 42.8632 66.2517 46.1012C66.2652 49.3393 68.9071 51.9812 72.1452 51.9948L81.1848 52.0326C84.4229 52.0461 87.11 49.359 87.0292 46.1882C86.9468 42.6125 84.1711 40.2399 81.1357 40.2946ZM62.3819 24.0936C62.3898 25.9825 60.9791 27.3932 59.0902 27.3853L55.8522 27.3718L55.7573 20.8279L58.9954 20.8414C61.0192 20.8499 62.3746 22.3396 62.3819 24.0936ZM84.398 46.1097C84.4725 47.7965 82.9952 49.4093 81.1063 49.4014L77.8683 49.3879L77.7734 42.844L81.0115 42.8575C83.0353 42.866 84.3907 44.3557 84.398 46.1097ZM75.3449 42.8338L75.372 49.3099L72.1339 49.2964C70.245 49.2885 68.8225 47.8659 68.8146 45.977C68.8067 44.0882 70.2174 42.6775 72.0391 42.7525L75.3449 42.8338ZM53.3288 20.8177L53.3559 27.2938L50.1178 27.2803C48.229 27.2724 46.8064 25.8498 46.7985 23.9609C46.7906 22.0721 48.2013 20.6614 50.023 20.7364L53.3288 20.8177ZM43.6688 33.7293L34.6292 33.6915C31.3911 33.678 28.7712 36.2979 28.7848 39.536C28.7983 42.774 31.4402 45.416 34.6783 45.4295L43.7179 45.4673C46.9559 45.4809 49.5087 42.9281 49.5623 39.6229C49.5482 36.2499 46.8391 33.6751 43.6688 33.7293ZM65.6849 55.7454L56.6453 55.7076C53.4072 55.6941 50.7873 58.314 50.8009 61.5521C50.8144 64.7901 53.4563 67.4321 56.6944 67.4456L65.734 67.4834C68.972 67.497 71.592 64.877 71.5784 61.639C71.5643 58.266 68.8552 55.6912 65.6849 55.7454ZM46.9311 39.5444C46.9385 41.2984 45.5283 42.844 43.6394 42.8361L40.4013 42.8226L40.3737 36.2115L43.6118 36.2251C45.5006 36.233 46.9238 37.7905 46.9311 39.5444ZM68.9472 61.5605C68.9551 63.4494 67.5444 64.8601 65.6555 64.8522L62.4174 64.8387L62.3226 58.2948L65.5607 58.3083C67.3146 58.3157 68.9388 59.5367 68.9472 61.5605ZM59.8941 58.2846L59.854 64.8279L56.6159 64.8144C54.727 64.8065 53.3045 63.3839 53.2966 61.495C53.2887 59.6062 54.6994 58.1955 56.5883 58.2034L59.8941 58.2846ZM37.878 36.2685L37.9051 42.7447L34.667 42.7311C32.7781 42.7232 31.3556 41.3006 31.3477 39.4118C31.3398 37.5229 32.7505 36.1122 34.6394 36.1201L37.878 36.2685ZM28.218 49.1802L19.1784 49.1424C15.9403 49.1288 13.3204 51.7487 13.3339 54.9868C13.3475 58.2248 15.9894 60.8668 19.2275 60.8803L28.2671 60.9181C31.5051 60.9317 34.1251 58.3118 34.1115 55.0737C34.0974 51.7007 31.3883 49.126 28.218 49.1802ZM50.2341 71.1963L41.1945 71.1585C37.9564 71.1449 35.3365 73.7648 35.35 77.0029C35.3636 80.2409 38.0055 82.8829 41.2436 82.8964L50.2832 82.9342C53.5212 82.9478 56.1411 80.3279 56.1276 77.0898C56.0458 73.6491 53.4044 71.1421 50.2341 71.1963ZM31.4803 54.9952C31.4882 56.8841 30.0775 58.2948 28.1886 58.2869L24.9505 58.2734L24.9229 51.6623L28.161 51.6759C30.1176 51.7515 31.473 53.2413 31.4803 54.9952ZM53.4964 77.0113C53.5043 78.9002 52.0258 80.2432 50.2047 80.303L46.9666 80.2895L46.939 73.6784L50.1771 73.692C52.0659 73.6999 53.4891 75.2574 53.4964 77.0113ZM44.4432 73.7355L44.4032 80.2788L41.1651 80.2652C39.2762 80.2573 37.8537 78.8347 37.8458 76.9459C37.8379 75.057 39.2486 73.6463 41.1374 73.6542L44.4432 73.7355ZM22.4272 51.7194L22.4543 58.1955L19.2162 58.1819C17.3273 58.174 15.9047 56.7515 15.8968 54.8626C15.8889 52.9737 17.2997 51.563 19.1885 51.5709L22.4272 51.7194Z" fill="#7d4d27"/>
</g>
<path d="M83.504 100.812L79.12 94.8918L74.704 100.812H70.288L76.944 92.1398L70.576 83.7238H75.024L79.216 89.3238L83.408 83.7238H87.728L81.328 92.0758L88.016 100.812H83.504Z" fill="#7d4d27"/>
<path d="M106.132 97.2918V100.812H89.62V98.0278L98.516 89.5798C99.5187 88.6198 100.191 87.7878 100.532 87.0838C100.895 86.3585 101.076 85.6438 101.076 84.9398C101.076 83.8945 100.724 83.0945 100.02 82.5398C99.316 81.9851 98.2814 81.7078 96.916 81.7078C94.6334 81.7078 92.884 82.4865 91.668 84.0438L88.756 81.8038C89.6307 80.6305 90.804 79.7238 92.276 79.0838C93.7694 78.4225 95.4334 78.0918 97.268 78.0918C99.7 78.0918 101.641 78.6678 103.092 79.8198C104.543 80.9718 105.268 82.5398 105.268 84.5238C105.268 85.7398 105.012 86.8811 104.5 87.9478C103.988 89.0145 103.007 90.2305 101.556 91.5958L95.572 97.2918H106.132Z" fill="#7d4d27"/>
</g>
<defs>
<clipPath id="clip0_203:564">
<rect width="106.132" height="100.452" fill="white" transform="translate(0 0.359375)"/>
</clipPath>
<clipPath id="clip1_203:564">
<rect width="64.7618" height="77.1427" fill="white" transform="translate(54.5481 0.359375) rotate(45)"/>
</clipPath>
</defs>
</svg>
