<svg width="98" height="98" viewBox="0 0 98 98" fill="none" xmlns="http://www.w3.org/2000/svg">
<path d="M88.6379 9.2794H71.3563V2.03228C71.3563 0.917335 70.7989 0.359863 69.6839 0.359863C68.569 0.359863 68.0115 0.917335 68.0115 2.03228V17.6415C68.0115 18.7564 68.569 19.3139 69.6839 19.3139C70.7989 19.3139 71.3563 18.7564 71.3563 17.6415V12.6242H88.6379C91.4253 12.6242 93.6552 14.8541 93.6552 17.6415V33.2507H3.34483V17.6415C3.34483 14.8541 5.57471 12.6242 8.36207 12.6242H22.2989V9.2794H8.91954C3.9023 9.2794 0 13.1817 0 17.6415V88.9978C0 94.015 3.9023 97.9173 8.91954 97.9173H88.6379C93.6552 97.9173 97.5575 94.015 97.5575 88.9978V17.6415C97 13.1817 93.0977 9.2794 88.6379 9.2794ZM93.6552 88.9978C93.6552 91.7852 91.4253 94.015 88.6379 94.015H8.91954C6.13218 94.015 3.9023 91.7852 3.9023 88.9978V36.5955H94.2127L93.6552 88.9978Z" fill="#1D71B8"/>
</svg>
